<svg xmlns="http://www.w3.org/2000/svg" xmlns:xlink="http://www.w3.org/1999/xlink" version="1.1" id="Layer_1" x="0px" y="0px" viewBox="0 0 300 90" style="enable-background:new 0 0 300 90;" xml:space="preserve">
<style type="text/css">
	.st0{fill:#A60023;}
	.st1{fill:#152342;}
	.st2{fill:#FFFFFF;}
	.st3{fill:#30542F;}
	.st4{fill:#88201D;}
	.st5{fill:#E9C22E;}
	.st6{fill:#2D5099;}
</style>
<g>
	<g>
		<g>
			<path class="st0" d="M112.49,3.62h8.44v5.62h-2.81v11.25h2.81v5.62h-2.81v11.25h2.81v5.63h-8.44V3.62z"/>
			<path class="st0" d="M122.01,3.62h5.85l2.25,21.38h0.51V3.62h4.78v39.38h-5.85l-2.25-21.38h-0.51v21.38h-4.78V3.62z"/>
			<path class="st0" d="M136.5,37.65V8.96c0-3.09,2.53-5.62,5.63-5.62h1.12c3.09,0,5.62,2.53,5.62,5.62v9.84h-5.62V9.24h-1.12v28.13     h1.41V26.12h-0.73v-4.5h6.07v16.03c0,3.09-2.53,5.63-5.62,5.63h-1.12C139.03,43.28,136.5,40.74,136.5,37.65z"/>
			<path class="st0" d="M149.96,3.62h5.63v33.75h3.66v5.63h-9.28V3.62z"/>
			<path class="st0" d="M162.2,3.62h9.34l1.97,39.38h-5.74l-0.17-11.25h-1.46l-0.17,11.25h-5.74L162.2,3.62z M167.49,26.12     l-0.23-15.19h-0.79l-0.22,15.19H167.49z"/>
			<path class="st0" d="M174.54,3.62h5.85l2.25,21.38h0.51V3.62h4.78v39.38h-5.85l-2.25-21.38h-0.51v21.38h-4.78V3.62z"/>
			<path class="st0" d="M189.04,3.62h6.75c3.09,0,5.62,2.53,5.62,5.62v28.13c0,3.09-2.53,5.63-5.62,5.63h-6.75V3.62z M195.79,37.37     V9.24h-1.12v28.13H195.79z"/>
			<path class="st0" d="M208.28,37.65v-9.84h5.63v9.56h1.12v-9.39c0-0.45-0.23-0.9-0.56-1.18l-3.99-3.09     c-1.41-1.12-2.19-2.64-2.19-4.33V8.96c0-3.09,2.53-5.62,5.63-5.62h1.12c3.09,0,5.62,2.53,5.62,5.62v9.84h-5.62V9.24h-1.12v9.39     c0,0.45,0.22,0.9,0.56,1.18l3.88,2.87c1.46,1.12,2.31,2.76,2.31,4.56v10.41c0,3.09-2.53,5.63-5.62,5.63h-1.12     C210.81,43.28,208.28,40.74,208.28,37.65z"/>
			<path class="st0" d="M224.22,9.24h-2.53V3.62h10.69v5.62h-2.53v33.75h-5.62V9.24z"/>
			<path class="st0" d="M233.41,37.65V8.96c0-3.09,2.53-5.62,5.63-5.62h1.12c3.09,0,5.62,2.53,5.62,5.62v28.69     c0,3.09-2.53,5.63-5.62,5.63h-1.12C235.94,43.28,233.41,40.74,233.41,37.65z M240.16,37.37V9.24h-1.12v28.13H240.16z"/>
			<path class="st0" d="M246.89,3.62h6.75c3.09,0,5.62,2.53,5.62,5.62v9.56c0,2.19-1.29,4.11-3.09,5.01l3.09,2.31v16.88h-5.62V26.12     h-1.12v16.88h-5.63V3.62z M253.64,20.49V9.24h-1.12v11.25H253.64z"/>
			<path class="st0" d="M260.35,3.62h8.44v5.62h-2.81v11.25h2.81v5.62h-2.81v11.25h2.81v5.63h-8.44V3.62z"/>
		</g>
		<g>
			<path class="st0" d="M112.8,56.03c0-1.24,0.13-2.34,0.38-3.29c0.25-0.95,0.6-1.75,1.04-2.39c0.44-0.64,0.96-1.12,1.55-1.44     c0.59-0.32,1.23-0.48,1.92-0.48c0.68,0,1.32,0.16,1.92,0.49c0.59,0.33,1.11,0.81,1.55,1.44c0.44,0.64,0.79,1.43,1.05,2.38     c0.26,0.95,0.39,2.05,0.39,3.29c0,1.26-0.13,2.36-0.39,3.3c-0.26,0.94-0.61,1.73-1.05,2.36s-0.96,1.1-1.55,1.42     c-0.59,0.32-1.23,0.48-1.92,0.48c-0.68,0-1.32-0.16-1.92-0.48c-0.59-0.32-1.11-0.8-1.55-1.43c-0.44-0.63-0.79-1.42-1.04-2.37     C112.93,58.37,112.8,57.27,112.8,56.03z M115.25,56.03c0,3.74,0.81,5.61,2.43,5.61c0.8,0,1.4-0.47,1.81-1.41     c0.41-0.94,0.62-2.34,0.62-4.2c0-1.87-0.21-3.28-0.62-4.22c-0.41-0.94-1.02-1.41-1.81-1.41c-0.8,0-1.4,0.48-1.81,1.43     C115.46,52.79,115.25,54.19,115.25,56.03z"/>
			<path class="st0" d="M134.25,63.34v-8.4h-2.45v8.4h-2.11v-8.4h-2.45v8.4h-2.11v-8.4h-1.4v-1.63h1.4v-2.14     c0-0.57,0.07-1.07,0.22-1.49c0.15-0.42,0.34-0.76,0.59-1.03c0.24-0.27,0.53-0.46,0.86-0.59c0.33-0.13,0.68-0.19,1.06-0.19     c0.32,0,0.6,0.05,0.84,0.16c0.24,0.1,0.45,0.23,0.65,0.39l-0.92,1.38c-0.1-0.08-0.22-0.13-0.38-0.13c-0.22,0-0.41,0.11-0.57,0.33     c-0.15,0.22-0.23,0.6-0.23,1.13v2.16h2.45v-2.47c0-0.57,0.07-1.07,0.22-1.49c0.15-0.42,0.34-0.76,0.59-1.03     c0.24-0.26,0.53-0.46,0.86-0.59c0.33-0.13,0.68-0.19,1.06-0.19c0.39,0,0.73,0.07,1.03,0.21c0.29,0.14,0.54,0.32,0.73,0.54     c0.2,0.22,0.35,0.47,0.46,0.74s0.18,0.54,0.21,0.81l-1.44,0.61c-0.04-0.32-0.13-0.58-0.25-0.76c-0.13-0.19-0.31-0.28-0.54-0.28     c-0.24,0-0.43,0.12-0.58,0.36c-0.15,0.24-0.22,0.64-0.22,1.21v2.32h4.57v10.03H134.25z"/>
			<path class="st0" d="M138.15,58.31c0-0.74,0.09-1.43,0.27-2.06c0.18-0.64,0.45-1.19,0.81-1.67c0.36-0.47,0.79-0.85,1.31-1.12     c0.52-0.27,1.11-0.41,1.78-0.41c0.57,0,1.08,0.12,1.53,0.35c0.45,0.23,0.82,0.53,1.13,0.91c0.31,0.38,0.53,0.8,0.66,1.28     c0.13,0.47,0.17,0.96,0.12,1.44l-1.88,0.23c0.04-0.29,0.04-0.59-0.01-0.88c-0.05-0.29-0.14-0.55-0.27-0.79     c-0.13-0.23-0.3-0.42-0.51-0.55c-0.21-0.14-0.45-0.21-0.73-0.21c-0.25,0-0.5,0.06-0.74,0.18c-0.24,0.12-0.46,0.31-0.65,0.59     c-0.19,0.27-0.34,0.63-0.46,1.07c-0.12,0.44-0.18,0.99-0.18,1.64c0,0.64,0.06,1.19,0.18,1.64c0.12,0.45,0.27,0.82,0.46,1.09     c0.19,0.27,0.4,0.47,0.64,0.6c0.24,0.13,0.48,0.19,0.73,0.19c0.46,0,0.87-0.18,1.21-0.55c0.35-0.37,0.54-0.97,0.57-1.81     l1.84,0.42c0,0.5-0.08,0.98-0.23,1.42c-0.15,0.45-0.39,0.84-0.7,1.18c-0.31,0.34-0.71,0.61-1.18,0.82     c-0.47,0.2-1.02,0.3-1.63,0.3c-0.63,0-1.19-0.13-1.7-0.39c-0.5-0.26-0.93-0.62-1.28-1.09c-0.35-0.47-0.61-1.03-0.8-1.68     C138.24,59.81,138.15,59.1,138.15,58.31z"/>
			<path class="st0" d="M147.62,51.38v-2.99h2.09v2.99H147.62z M147.62,63.34V53.31h2.09v10.03H147.62z"/>
			<path class="st0" d="M159.43,63.3c-0.13,0.07-0.31,0.14-0.54,0.2c-0.24,0.06-0.52,0.09-0.84,0.09c-0.52,0-0.91-0.14-1.18-0.41     c-0.27-0.27-0.42-0.63-0.45-1.08c-0.21,0.45-0.52,0.81-0.92,1.08c-0.41,0.27-0.87,0.41-1.4,0.41c-0.45,0-0.84-0.07-1.17-0.22     c-0.34-0.15-0.61-0.35-0.83-0.6c-0.22-0.25-0.38-0.53-0.49-0.85c-0.11-0.31-0.17-0.64-0.17-0.97c0-1.26,0.64-2.2,1.93-2.83     c0.35-0.17,0.81-0.33,1.38-0.49c0.57-0.16,1.11-0.28,1.61-0.35v-0.96c0-0.59-0.13-1.01-0.38-1.27c-0.25-0.26-0.57-0.39-0.96-0.39     c-0.45,0-0.79,0.14-1.02,0.41c-0.23,0.27-0.35,0.59-0.35,0.95c0,0.28,0.05,0.54,0.15,0.8l-1.82-0.31     c-0.11-0.29-0.17-0.57-0.17-0.84c0-0.35,0.08-0.68,0.23-0.99c0.15-0.31,0.37-0.59,0.66-0.84c0.29-0.24,0.64-0.44,1.05-0.58     c0.41-0.14,0.88-0.21,1.39-0.21c1.17,0,2.02,0.28,2.54,0.84c0.52,0.56,0.79,1.32,0.79,2.28v5.47c0,0.2,0.03,0.35,0.09,0.46     c0.06,0.11,0.19,0.17,0.39,0.17c0.07,0,0.14-0.01,0.22-0.02c0.08-0.01,0.16-0.03,0.26-0.06V63.3z M154.8,61.96     c0.46,0,0.83-0.16,1.12-0.49c0.29-0.33,0.43-0.76,0.43-1.29v-1.59c-0.32,0.07-0.62,0.14-0.89,0.22     c-0.27,0.08-0.53,0.17-0.76,0.28c-0.73,0.38-1.09,0.91-1.09,1.59c0,0.41,0.12,0.72,0.35,0.94     C154.19,61.85,154.47,61.96,154.8,61.96z"/>
			<path class="st0" d="M160.85,63.34V47.63h2.09v15.71H160.85z"/>
			<path class="st0" d="M171.15,63.34h-2.09V48.68h3.5l2.99,10.91l2.97-10.91h3.41v14.66h-2.26V51.17l-3.39,12.17h-1.72l-3.41-12.17     V63.34z"/>
			<path class="st0" d="M191.36,61.54c-0.29,0.59-0.72,1.08-1.27,1.47c-0.55,0.39-1.29,0.59-2.21,0.59c-0.64,0-1.21-0.12-1.72-0.37     c-0.5-0.24-0.93-0.59-1.28-1.05c-0.35-0.45-0.61-0.99-0.8-1.62c-0.18-0.63-0.27-1.32-0.27-2.07c0-0.73,0.09-1.42,0.26-2.07     c0.17-0.66,0.43-1.23,0.76-1.73c0.34-0.5,0.75-0.89,1.26-1.18c0.5-0.29,1.08-0.44,1.74-0.44c0.67,0,1.25,0.15,1.74,0.44     c0.49,0.29,0.88,0.69,1.18,1.19c0.3,0.5,0.5,1.09,0.6,1.76c0.1,0.67,0.1,1.38,0,2.14h-5.38c0.01,1.14,0.21,1.98,0.59,2.49     c0.38,0.52,0.86,0.77,1.44,0.77c0.45,0,0.8-0.12,1.07-0.37s0.45-0.49,0.57-0.72L191.36,61.54z M187.84,54.77     c-0.39,0-0.76,0.2-1.12,0.6c-0.36,0.4-0.59,1.02-0.7,1.87h3.35c0.01-0.88-0.13-1.51-0.42-1.9     C188.66,54.97,188.29,54.77,187.84,54.77z"/>
			<path class="st0" d="M193.18,63.34V53.31h1.78l0.23,1.99c0.06-0.28,0.14-0.56,0.26-0.83c0.12-0.27,0.27-0.51,0.45-0.72     c0.18-0.21,0.39-0.38,0.64-0.5c0.24-0.13,0.52-0.19,0.83-0.19c0.32,0,0.63,0.07,0.93,0.21c0.3,0.14,0.55,0.36,0.76,0.66     c0.21,0.3,0.36,0.7,0.44,1.19c0.08,0.5,0.06,1.1-0.06,1.81l-1.93,1.15c0.13-0.7,0.19-1.26,0.19-1.68c0-0.61-0.1-1.01-0.29-1.19     c-0.2-0.18-0.42-0.27-0.67-0.27c-0.18,0-0.36,0.07-0.53,0.2c-0.17,0.13-0.33,0.35-0.47,0.64c-0.14,0.29-0.25,0.67-0.33,1.14     c-0.08,0.47-0.13,1.04-0.13,1.71v4.71H193.18z"/>
			<path class="st0" d="M200.61,58.31c0-0.74,0.09-1.43,0.27-2.06c0.18-0.64,0.45-1.19,0.81-1.67c0.36-0.47,0.79-0.85,1.31-1.12     c0.52-0.27,1.11-0.41,1.78-0.41c0.57,0,1.08,0.12,1.53,0.35c0.45,0.23,0.82,0.53,1.13,0.91c0.31,0.38,0.53,0.8,0.66,1.28     c0.13,0.47,0.17,0.96,0.12,1.44l-1.88,0.23c0.04-0.29,0.04-0.59-0.01-0.88c-0.05-0.29-0.14-0.55-0.27-0.79     c-0.13-0.23-0.3-0.42-0.51-0.55c-0.21-0.14-0.45-0.21-0.73-0.21c-0.25,0-0.5,0.06-0.74,0.18c-0.24,0.12-0.46,0.31-0.65,0.59     c-0.19,0.27-0.34,0.63-0.46,1.07c-0.12,0.44-0.18,0.99-0.18,1.64c0,0.64,0.06,1.19,0.18,1.64c0.12,0.45,0.27,0.82,0.46,1.09     c0.19,0.27,0.4,0.47,0.64,0.6c0.24,0.13,0.48,0.19,0.73,0.19c0.46,0,0.87-0.18,1.21-0.55c0.35-0.37,0.54-0.97,0.57-1.81     l1.84,0.42c0,0.5-0.08,0.98-0.23,1.42c-0.15,0.45-0.39,0.84-0.7,1.18c-0.31,0.34-0.71,0.61-1.18,0.82     c-0.47,0.2-1.02,0.3-1.63,0.3c-0.63,0-1.19-0.13-1.7-0.39c-0.5-0.26-0.93-0.62-1.28-1.09c-0.35-0.47-0.61-1.03-0.8-1.68     C200.7,59.81,200.61,59.1,200.61,58.31z"/>
			<path class="st0" d="M212.19,63.34h-2.09V47.63h2.09v7.35c0.1-0.24,0.22-0.47,0.37-0.69c0.15-0.22,0.32-0.43,0.53-0.62     c0.21-0.19,0.45-0.34,0.72-0.45c0.27-0.11,0.58-0.17,0.91-0.17c0.36,0,0.71,0.07,1.04,0.2c0.33,0.13,0.61,0.33,0.86,0.6     c0.24,0.27,0.44,0.6,0.58,1.02c0.14,0.41,0.21,0.9,0.21,1.46v7.02h-2.11v-6.49c0-0.66-0.13-1.14-0.39-1.44     c-0.26-0.31-0.57-0.46-0.93-0.46c-0.52,0-0.94,0.23-1.28,0.69c-0.34,0.46-0.5,1.17-0.5,2.14V63.34z"/>
			<path class="st0" d="M227.03,63.3c-0.13,0.07-0.31,0.14-0.54,0.2c-0.24,0.06-0.52,0.09-0.84,0.09c-0.52,0-0.91-0.14-1.18-0.41     c-0.27-0.27-0.42-0.63-0.45-1.08c-0.21,0.45-0.52,0.81-0.92,1.08c-0.41,0.27-0.87,0.41-1.4,0.41c-0.45,0-0.84-0.07-1.17-0.22     c-0.34-0.15-0.61-0.35-0.83-0.6c-0.22-0.25-0.38-0.53-0.49-0.85c-0.11-0.31-0.17-0.64-0.17-0.97c0-1.26,0.64-2.2,1.93-2.83     c0.35-0.17,0.81-0.33,1.38-0.49c0.57-0.16,1.11-0.28,1.61-0.35v-0.96c0-0.59-0.13-1.01-0.38-1.27c-0.25-0.26-0.57-0.39-0.96-0.39     c-0.45,0-0.79,0.14-1.02,0.41c-0.23,0.27-0.35,0.59-0.35,0.95c0,0.28,0.05,0.54,0.15,0.8l-1.82-0.31     c-0.11-0.29-0.17-0.57-0.17-0.84c0-0.35,0.08-0.68,0.23-0.99c0.15-0.31,0.37-0.59,0.66-0.84c0.29-0.24,0.64-0.44,1.05-0.58     c0.41-0.14,0.88-0.21,1.39-0.21c1.17,0,2.02,0.28,2.54,0.84c0.52,0.56,0.79,1.32,0.79,2.28v5.47c0,0.2,0.03,0.35,0.09,0.46     c0.06,0.11,0.19,0.17,0.39,0.17c0.07,0,0.14-0.01,0.22-0.02c0.08-0.01,0.16-0.03,0.26-0.06V63.3z M222.4,61.96     c0.46,0,0.83-0.16,1.12-0.49c0.29-0.33,0.43-0.76,0.43-1.29v-1.59c-0.32,0.07-0.62,0.14-0.89,0.22     c-0.27,0.08-0.53,0.17-0.76,0.28c-0.73,0.38-1.09,0.91-1.09,1.59c0,0.41,0.12,0.72,0.35,0.94     C221.79,61.85,222.07,61.96,222.4,61.96z"/>
			<path class="st0" d="M228.46,63.34V53.31h1.84l0.23,1.72c0.1-0.24,0.22-0.47,0.37-0.7c0.15-0.23,0.32-0.44,0.53-0.63     c0.21-0.19,0.45-0.34,0.73-0.46c0.28-0.12,0.59-0.18,0.92-0.18c0.36,0,0.71,0.07,1.04,0.2c0.33,0.13,0.61,0.33,0.86,0.6     c0.24,0.27,0.44,0.6,0.58,1.02c0.14,0.41,0.21,0.9,0.21,1.46v7.02h-2.11v-6.49c0-0.66-0.13-1.14-0.39-1.44     c-0.26-0.31-0.57-0.46-0.93-0.46c-0.52,0-0.94,0.23-1.28,0.69c-0.34,0.46-0.5,1.17-0.5,2.14v5.57H228.46z"/>
			<path class="st0" d="M243.65,61.56c-0.24,0.6-0.58,1.09-1.04,1.47c-0.45,0.38-0.99,0.57-1.62,0.57c-0.54,0-1.03-0.14-1.46-0.41     c-0.43-0.27-0.79-0.65-1.08-1.12c-0.29-0.47-0.52-1.03-0.67-1.68c-0.15-0.64-0.23-1.33-0.23-2.07c0-0.74,0.08-1.43,0.24-2.07     c0.16-0.64,0.39-1.2,0.68-1.67c0.29-0.47,0.65-0.84,1.08-1.11c0.43-0.27,0.91-0.41,1.46-0.41c0.61,0,1.14,0.18,1.57,0.53     c0.43,0.36,0.77,0.84,1.01,1.46v-7.41h2.12v15.71h-1.84L243.65,61.56z M239.7,58.31c0,1.05,0.18,1.88,0.54,2.49     c0.36,0.61,0.84,0.92,1.42,0.92c0.54,0,1.01-0.31,1.4-0.92c0.39-0.61,0.59-1.44,0.59-2.49s-0.19-1.87-0.58-2.47     c-0.38-0.6-0.86-0.9-1.41-0.9c-0.59,0-1.06,0.3-1.42,0.9C239.88,56.44,239.7,57.27,239.7,58.31z"/>
			<path class="st0" d="M247.92,51.38v-2.99h2.09v2.99H247.92z M247.92,63.34V53.31h2.09v10.03H247.92z"/>
			<path class="st0" d="M256.38,57.54c0.34,0.11,0.66,0.24,0.98,0.39c0.32,0.15,0.61,0.33,0.88,0.55s0.48,0.49,0.64,0.81     c0.16,0.31,0.24,0.69,0.24,1.14c0,0.42-0.08,0.82-0.24,1.2c-0.16,0.38-0.4,0.72-0.71,1.02c-0.31,0.29-0.71,0.52-1.17,0.69     c-0.47,0.17-1,0.25-1.6,0.25c-0.53,0-1.03-0.07-1.5-0.21c-0.47-0.14-0.87-0.35-1.2-0.62s-0.59-0.61-0.75-1.03     c-0.17-0.41-0.22-0.89-0.17-1.43l1.95-0.25c-0.07,0.56,0.04,1.01,0.34,1.36c0.29,0.35,0.75,0.52,1.38,0.52     c0.54,0,0.95-0.13,1.2-0.39c0.26-0.26,0.39-0.55,0.39-0.89c0-0.38-0.14-0.66-0.42-0.85c-0.28-0.19-0.66-0.37-1.15-0.53     l-1.26-0.42c-0.73-0.24-1.29-0.59-1.69-1.07c-0.4-0.47-0.6-1.05-0.6-1.74c0-0.45,0.09-0.85,0.27-1.21     c0.18-0.36,0.43-0.68,0.74-0.94c0.31-0.26,0.69-0.47,1.12-0.62c0.43-0.15,0.91-0.22,1.42-0.22c1.01,0,1.81,0.25,2.42,0.74     c0.61,0.5,0.9,1.15,0.87,1.96l-1.78,0.46c0.03-0.53-0.12-0.92-0.43-1.16c-0.31-0.24-0.69-0.37-1.14-0.37     c-0.52,0-0.89,0.12-1.13,0.36c-0.24,0.24-0.36,0.5-0.36,0.77c0,0.35,0.13,0.63,0.38,0.83c0.25,0.2,0.59,0.38,1.03,0.53     L256.38,57.54z"/>
			<path class="st0" d="M267.88,61.54c-0.29,0.59-0.72,1.08-1.27,1.47c-0.55,0.39-1.29,0.59-2.21,0.59c-0.64,0-1.21-0.12-1.72-0.37     c-0.5-0.24-0.93-0.59-1.28-1.05c-0.35-0.45-0.61-0.99-0.8-1.62c-0.18-0.63-0.27-1.32-0.27-2.07c0-0.73,0.09-1.42,0.26-2.07     c0.17-0.66,0.43-1.23,0.76-1.73c0.34-0.5,0.75-0.89,1.26-1.18c0.5-0.29,1.08-0.44,1.74-0.44c0.67,0,1.25,0.15,1.74,0.44     c0.49,0.29,0.88,0.69,1.18,1.19c0.3,0.5,0.5,1.09,0.6,1.76c0.1,0.67,0.1,1.38,0,2.14h-5.38c0.01,1.14,0.21,1.98,0.59,2.49     c0.38,0.52,0.86,0.77,1.44,0.77c0.45,0,0.8-0.12,1.07-0.37s0.45-0.49,0.57-0.72L267.88,61.54z M264.36,54.77     c-0.39,0-0.76,0.2-1.12,0.6c-0.36,0.4-0.59,1.02-0.7,1.87h3.35c0.01-0.88-0.13-1.51-0.42-1.9     C265.18,54.97,264.81,54.77,264.36,54.77z"/>
		</g>
	</g>
	<g>
		<path class="st1" d="M183.99,78.87h-1.36c-0.04,0-0.08,0.03-0.08,0.08v5.49c0,0.04,0.03,0.08,0.08,0.08h1.36    c0.04,0,0.08-0.03,0.08-0.08v-5.49C184.07,78.9,184.03,78.87,183.99,78.87z"/>
		<path class="st1" d="M181.74,78.88h-1.22v-1.19c0-0.04-0.03-0.08-0.08-0.08h-1.36c-0.04,0-0.08,0.03-0.08,0.08l0,4.81    c0,1.28,0.72,2.01,1.98,2.01l0.25,0h0.5c0.04,0,0.08-0.03,0.08-0.08V83.2c0-0.04-0.03-0.08-0.08-0.08c-0.14,0-0.58,0-0.67,0    c-0.39-0.02-0.57-0.21-0.57-0.63v-2.1h1.23c0.04,0,0.08-0.03,0.08-0.08v-1.36C181.81,78.91,181.78,78.88,181.74,78.88z"/>
		<path class="st1" d="M182.49,77.2c0,1.1,1.67,1.1,1.67,0C184.16,76.09,182.49,76.09,182.49,77.2z"/>
		<path class="st1" d="M187.73,80.2c0.32,0,0.66,0.12,0.92,0.34c0.03,0.03,0.08,0.02,0.11-0.01l0.87-0.92    c0.03-0.03,0.03-0.08,0-0.11c-0.56-0.53-1.14-0.75-1.92-0.75c-1.76,0-2.9,1.14-2.9,2.89c0,1.76,1.14,2.89,2.9,2.89    c0.78,0,1.36-0.23,1.92-0.75c0.03-0.03,0.03-0.08,0-0.11l-0.87-0.92c-0.03-0.03-0.07-0.03-0.11-0.01    c-0.26,0.22-0.6,0.34-0.92,0.34c-0.82,0-1.4-0.59-1.4-1.44C186.33,80.79,186.9,80.2,187.73,80.2z"/>
		<path class="st1" d="M192.52,80.93c-0.87-0.06-0.87-0.36-0.87-0.46c0-0.37,0.59-0.41,0.84-0.41c0.49,0,0.85,0.12,1.15,0.38    c0.03,0.03,0.08,0.03,0.11-0.01l0.77-0.89c0.03-0.03,0.02-0.08-0.01-0.11c-0.56-0.47-1.16-0.66-2.04-0.66    c-0.56,0-1.11,0.14-1.51,0.38c-0.52,0.31-0.8,0.78-0.8,1.36c0,1,0.8,1.62,2.26,1.73c0.82,0.05,0.93,0.29,0.93,0.49    c0,0.3-0.4,0.46-0.79,0.46h-0.03c-0.64-0.01-1.25-0.25-1.65-0.63c-0.03-0.03-0.09-0.03-0.11,0.01l-0.7,0.95    c-0.02,0.03-0.02,0.07,0.01,0.1c0.8,0.8,1.68,0.91,2.44,0.91c1.07,0,1.87-0.41,2.2-1.12c0.1-0.22,0.15-0.45,0.15-0.7    C194.85,81.26,193.6,81,192.52,80.93z"/>
		<path class="st1" d="M169.38,78.8c-0.59,0-1.09,0.2-1.6,0.64l0-0.49c0-0.04-0.03-0.08-0.08-0.08h-1.3c-0.04,0-0.08,0.03-0.08,0.08    v5.47c0,0.04,0.03,0.08,0.08,0.08h1.35c0.04,0,0.08-0.03,0.08-0.08v-2.99c0-0.66,0.54-1.23,1.19-1.24l0.03,0    c0.84,0,1.14,0.66,1.14,1.28v2.95c0,0.04,0.03,0.08,0.08,0.08h1.36c0.04,0,0.08-0.03,0.08-0.08v-2.96    C171.7,79.87,170.77,78.8,169.38,78.8z"/>
		<path class="st1" d="M165.44,78.87h-1.34c-0.04,0-0.08,0.03-0.08,0.08l0,0.23c-0.46-0.36-1.01-0.41-1.55-0.41h-0.03    c-1.7,0-2.8,1.11-2.8,2.83c0,0.9,0.27,1.64,0.79,2.14c0.49,0.48,1.17,0.73,1.98,0.73l0.09,0c0.49-0.01,1.05-0.02,1.52-0.46l0,0.41    c0,0.04,0.03,0.08,0.08,0.08h1.34c0.04,0,0.08-0.03,0.08-0.08v-5.49C165.52,78.9,165.48,78.87,165.44,78.87z M163.73,82.59    c-0.25,0.3-0.7,0.48-1.14,0.48c-0.86,0-1.43-0.59-1.43-1.47c0-0.87,0.57-1.46,1.43-1.46c1.04,0,1.47,0.74,1.47,1.44    C164.06,81.96,163.96,82.32,163.73,82.59z"/>
		<path class="st1" d="M178.13,78.87h-1.35c-0.04,0-0.08,0.03-0.08,0.08l0,0.23c-0.46-0.36-1.01-0.41-1.55-0.41h-0.03    c-1.7,0-2.8,1.11-2.8,2.83c0,0.9,0.27,1.64,0.79,2.14c0.49,0.48,1.17,0.73,1.98,0.73l0.08,0c0.49-0.01,1.05-0.02,1.52-0.46l0,0.41    c0,0.04,0.03,0.08,0.08,0.08h1.35c0.04,0,0.08-0.03,0.08-0.08v-5.49C178.21,78.9,178.18,78.87,178.13,78.87z M176.42,82.59    c-0.25,0.3-0.7,0.48-1.14,0.48c-0.85,0-1.43-0.59-1.43-1.47c0-0.87,0.57-1.46,1.43-1.46c1.04,0,1.47,0.74,1.47,1.44    C176.75,81.96,176.65,82.32,176.42,82.59z"/>
		<path class="st1" d="M158.99,79.45h-2.46c-0.05,0-0.1-0.04-0.1-0.1V77.7c0-0.05,0.04-0.1,0.1-0.1h3.38c0.05,0,0.1-0.04,0.1-0.1    v-1.32c0-0.05-0.04-0.1-0.1-0.1h-4.89c-0.05,0-0.1,0.04-0.1,0.1v8.22c0,0.05,0.04,0.1,0.1,0.1h1.32c0.05,0,0.1-0.04,0.1-0.1v-3.36    c0-0.05,0.04-0.09,0.1-0.09h2.46c0.05,0,0.1-0.04,0.1-0.1v-1.32C159.09,79.49,159.05,79.45,158.99,79.45z"/>
		<path class="st1" d="M141.24,74.24c-0.97-0.07-2.21-0.34-2.5-0.41c-0.14-0.02-0.22,0.12-0.15,0.23c0.53,0.82,2.13,3.28,2.13,3.28    c0.02,0.03,0.05,0.04,0.08,0.05c3.31,0.72,7.06-2.29,10.31-0.65c0.05,0.02,0.11,0,0.14-0.04l1.41-2.19    c0.03-0.05,0.02-0.11-0.03-0.15C148.98,71.5,146.26,74.51,141.24,74.24z"/>
		<path class="st1" d="M150.29,78.02c-2.47-0.85-4.77,0.78-8.29,0.87c-0.09,0-0.18,0.11-0.12,0.22l3.8,5.86    c0.06,0.1,0.19,0.04,0.17-0.05l-0.82-3.71c-0.01-0.03,0.01-0.06,0.05-0.07c0.3-0.11,2.45-0.84,3.46-0.37    c0.03,0.01,0.06,0,0.07-0.02l1.71-2.65C150.34,78.08,150.33,78.04,150.29,78.02z"/>
		<polygon class="st1" points="199.8,81.22 203.78,81.22 203.78,80.15 199.8,80.15 199.8,78.2 203.95,78.2 203.95,77.07     198.64,77.07 198.64,84.3 203.98,84.3 203.98,83.16 199.8,83.16   "/>
		<polygon class="st1" points="209.63,79.24 209.63,79.21 208.34,79.21 207.21,81.02 206.07,79.21 204.8,79.21 204.8,79.24     206.51,81.71 204.68,84.27 204.68,84.3 205.96,84.3 207.21,82.45 208.46,84.3 209.74,84.3 209.74,84.27 207.91,81.71   "/>
		<path class="st1" d="M215.31,79.86c-0.23-0.23-0.5-0.42-0.82-0.55c-0.32-0.13-0.67-0.2-1.04-0.2c-0.35,0-0.69,0.08-1.01,0.23    c-0.32,0.15-0.59,0.39-0.78,0.7l-0.06-0.83h-1v7.45h1.06v-3.09c0.1,0.16,0.21,0.29,0.36,0.4c0.14,0.11,0.29,0.2,0.45,0.27    c0.16,0.07,0.33,0.12,0.5,0.14c0.17,0.03,0.33,0.04,0.49,0.04c0.39,0,0.75-0.07,1.07-0.2c0.32-0.13,0.59-0.31,0.81-0.55    c0.22-0.24,0.39-0.52,0.51-0.85c0.12-0.33,0.18-0.69,0.18-1.08c0-0.38-0.06-0.73-0.19-1.06    C215.71,80.37,215.53,80.09,215.31,79.86z M214.84,82.42c-0.08,0.2-0.19,0.37-0.34,0.52c-0.14,0.14-0.31,0.26-0.51,0.34    c-0.2,0.08-0.41,0.12-0.65,0.12c-0.23,0-0.45-0.04-0.64-0.13c-0.2-0.09-0.37-0.2-0.51-0.35c-0.14-0.15-0.25-0.32-0.33-0.52    c-0.08-0.2-0.12-0.41-0.12-0.64c0-0.23,0.04-0.44,0.11-0.63c0.08-0.2,0.18-0.37,0.32-0.52c0.14-0.15,0.3-0.26,0.5-0.35    c0.2-0.08,0.42-0.12,0.67-0.12c0.5,0,0.89,0.15,1.18,0.45c0.29,0.3,0.43,0.69,0.43,1.17C214.95,82,214.91,82.22,214.84,82.42z"/>
		<path class="st1" d="M221.48,79.86c-0.23-0.26-0.51-0.45-0.85-0.57c-0.33-0.13-0.71-0.19-1.12-0.19c-0.4,0-0.76,0.07-1.09,0.2    c-0.33,0.13-0.61,0.31-0.84,0.55c-0.23,0.23-0.42,0.52-0.55,0.84c-0.13,0.33-0.2,0.68-0.2,1.07c0,0.41,0.06,0.78,0.2,1.11    c0.13,0.33,0.31,0.62,0.55,0.85c0.24,0.23,0.52,0.42,0.86,0.54c0.34,0.13,0.72,0.19,1.14,0.19c0.19,0,0.39-0.02,0.6-0.05    c0.21-0.04,0.4-0.09,0.59-0.16c0.19-0.07,0.37-0.16,0.54-0.27c0.17-0.11,0.32-0.24,0.45-0.38l-0.69-0.67    c-0.16,0.18-0.38,0.31-0.66,0.41c-0.28,0.09-0.55,0.14-0.82,0.14c-0.47,0-0.86-0.11-1.15-0.35c-0.29-0.23-0.46-0.54-0.51-0.93    h4.13c0.05-0.52,0.02-0.97-0.09-1.35C221.88,80.43,221.72,80.11,221.48,79.86z M217.97,81.27c0.08-0.41,0.27-0.72,0.56-0.92    c0.29-0.2,0.63-0.3,1.02-0.3c0.43,0,0.78,0.1,1.05,0.3c0.27,0.2,0.42,0.51,0.45,0.92H217.97z"/>
		<path class="st1" d="M225.72,79.09c-0.28,0-0.55,0.05-0.82,0.15c-0.27,0.1-0.5,0.31-0.68,0.64l-0.07-0.67h-0.99v5.09h1.06v-2.76    c0-0.23,0.04-0.44,0.11-0.62c0.08-0.18,0.18-0.32,0.3-0.43c0.12-0.11,0.27-0.2,0.43-0.26c0.17-0.06,0.34-0.09,0.53-0.09    c0.2,0,0.37,0.03,0.5,0.08c0.13,0.05,0.27,0.13,0.4,0.23l0.49-0.93c-0.14-0.13-0.33-0.24-0.55-0.31    C226.21,79.13,225.97,79.09,225.72,79.09z"/>
		<rect x="227.7" y="79.19" class="st1" width="1.06" height="5.11"/>
		<path class="st1" d="M228.7,77.22c-0.14-0.11-0.29-0.16-0.45-0.16s-0.32,0.05-0.45,0.16c-0.14,0.11-0.21,0.27-0.21,0.49    c0,0.22,0.07,0.39,0.21,0.5c0.14,0.11,0.29,0.17,0.45,0.17s0.32-0.06,0.45-0.17c0.14-0.11,0.21-0.28,0.21-0.5    C228.9,77.49,228.83,77.33,228.7,77.22z"/>
		<path class="st1" d="M234.54,79.86c-0.23-0.26-0.51-0.45-0.85-0.57c-0.33-0.13-0.71-0.19-1.12-0.19c-0.4,0-0.76,0.07-1.09,0.2    c-0.33,0.13-0.61,0.31-0.84,0.55c-0.23,0.23-0.42,0.52-0.55,0.84c-0.13,0.33-0.2,0.68-0.2,1.07c0,0.41,0.06,0.78,0.2,1.11    c0.13,0.33,0.31,0.62,0.55,0.85c0.24,0.23,0.52,0.42,0.86,0.54c0.34,0.13,0.72,0.19,1.14,0.19c0.19,0,0.39-0.02,0.6-0.05    c0.21-0.04,0.4-0.09,0.59-0.16c0.19-0.07,0.37-0.16,0.54-0.27c0.17-0.11,0.32-0.24,0.45-0.38l-0.69-0.67    c-0.16,0.18-0.38,0.31-0.66,0.41c-0.28,0.09-0.55,0.14-0.82,0.14c-0.47,0-0.86-0.11-1.15-0.35c-0.29-0.23-0.46-0.54-0.51-0.93    h4.13c0.05-0.52,0.02-0.97-0.09-1.35C234.94,80.43,234.78,80.11,234.54,79.86z M231.03,81.27c0.08-0.41,0.27-0.72,0.56-0.92    c0.29-0.2,0.63-0.3,1.02-0.3c0.43,0,0.78,0.1,1.05,0.3c0.27,0.2,0.42,0.51,0.45,0.92H231.03z"/>
		<path class="st1" d="M240.52,79.73c-0.2-0.21-0.43-0.36-0.69-0.47c-0.27-0.11-0.55-0.16-0.86-0.16c-0.66,0-1.23,0.28-1.71,0.84    l-0.06-0.74h-0.97v5.1h1.06v-2.66c0-0.21,0.03-0.4,0.1-0.59c0.07-0.19,0.16-0.35,0.29-0.5c0.12-0.14,0.27-0.25,0.45-0.34    c0.18-0.08,0.37-0.12,0.58-0.12c0.44,0,0.78,0.14,1.02,0.41c0.24,0.28,0.36,0.63,0.36,1.07v2.73h1.07v-2.74    c0-0.4-0.06-0.75-0.17-1.06C240.87,80.2,240.72,79.94,240.52,79.73z"/>
		<path class="st1" d="M245.54,83.3c-0.21,0.07-0.43,0.11-0.65,0.11c-0.22,0-0.43-0.03-0.62-0.1c-0.2-0.07-0.37-0.17-0.52-0.31    c-0.15-0.14-0.27-0.31-0.35-0.52c-0.09-0.2-0.13-0.44-0.13-0.71c0-0.25,0.04-0.48,0.12-0.69c0.08-0.2,0.2-0.38,0.35-0.52    c0.15-0.14,0.32-0.26,0.52-0.34c0.2-0.08,0.41-0.12,0.64-0.12c0.2,0,0.4,0.04,0.6,0.11c0.2,0.07,0.39,0.18,0.55,0.33l0.67-0.69    c-0.28-0.27-0.56-0.46-0.86-0.58c-0.3-0.12-0.62-0.18-0.98-0.18c-0.37,0-0.72,0.06-1.04,0.17c-0.32,0.11-0.61,0.28-0.85,0.51    c-0.24,0.22-0.44,0.5-0.58,0.84c-0.14,0.33-0.21,0.72-0.21,1.16c0,0.44,0.07,0.83,0.21,1.16c0.14,0.33,0.33,0.61,0.58,0.84    c0.24,0.22,0.53,0.39,0.86,0.51c0.33,0.11,0.67,0.17,1.04,0.17c0.37,0,0.71-0.06,1.03-0.18c0.31-0.12,0.61-0.32,0.9-0.61    l-0.72-0.71C245.94,83.11,245.75,83.23,245.54,83.3z"/>
		<path class="st1" d="M252.49,80.82c-0.11-0.39-0.28-0.71-0.51-0.96c-0.23-0.26-0.51-0.45-0.85-0.57    c-0.33-0.13-0.71-0.19-1.12-0.19c-0.4,0-0.76,0.07-1.09,0.2c-0.33,0.13-0.61,0.31-0.84,0.55c-0.23,0.23-0.42,0.52-0.55,0.84    c-0.13,0.33-0.19,0.68-0.19,1.07c0,0.41,0.06,0.78,0.19,1.11c0.13,0.33,0.31,0.62,0.55,0.85c0.24,0.23,0.52,0.42,0.86,0.54    c0.34,0.13,0.72,0.19,1.14,0.19c0.19,0,0.39-0.02,0.6-0.05c0.21-0.04,0.4-0.09,0.59-0.16c0.19-0.07,0.37-0.16,0.54-0.27    c0.17-0.11,0.32-0.24,0.45-0.38l-0.69-0.67c-0.16,0.18-0.38,0.31-0.66,0.41c-0.28,0.09-0.55,0.14-0.82,0.14    c-0.47,0-0.86-0.11-1.15-0.35c-0.29-0.23-0.46-0.54-0.51-0.93h4.13C252.62,81.66,252.59,81.2,252.49,80.82z M248.47,81.27    c0.08-0.41,0.27-0.72,0.56-0.92c0.29-0.2,0.63-0.3,1.02-0.3c0.43,0,0.78,0.1,1.05,0.3c0.27,0.2,0.42,0.51,0.45,0.92H248.47z"/>
		<path class="st1" d="M133.51,77.25l-3.24,7.23h1.23l0.68-1.52h3.91l0.69,1.52h1.23l-3.24-7.23H133.51z M132.62,81.91l1.53-3.44    l1.53,3.44H132.62z"/>
	</g>
	<g>
		<path class="st2" d="M31.21,3.78v43.5c0,8.89,2.78,16.57,8.27,22.81c5.75,6.55,14.38,11.41,25.67,14.45    c11.29-3.04,19.92-7.9,25.67-14.45c5.49-6.24,8.27-13.92,8.27-22.81V3.78H31.21z"/>
		<path class="st3" d="M64.15,58.22c0.04-0.13,0.05-0.24-0.01-0.31c-0.04-0.05-0.12-0.05-0.2,0c-0.14,0.08-0.3,0.29-0.41,0.59    c-0.02,0.05-0.03,0.09-0.05,0.14c-0.13,0.41-0.13,0.72-0.13,0.72s0.31-0.31,0.5-0.56c0.03-0.04,0.06-0.08,0.08-0.12    C64,58.54,64.1,58.37,64.15,58.22"/>
		<path class="st4" d="M62.45,56.21c-0.22,0.16-0.79,0.66-0.46,1.46c0.39,0.92,1.26,0.97,1.48,0.97c0.02-0.05,0.03-0.09,0.05-0.14    c0.11-0.3,0.28-0.51,0.41-0.59c-0.04-0.27-0.1-0.63-0.19-0.85c-0.11-0.28-0.36-0.64-0.5-0.83C63.11,56.3,62.86,56.33,62.45,56.21"/>
		<path class="st4" d="M65.09,54.95c-0.09-0.13-0.16-0.42-0.19-0.85c0-0.04,0-0.06,0-0.08c-0.24-0.2-1.09-0.78-1.89-0.12    c-0.83,0.67-0.52,1.54-0.39,1.84c0.16,0.03,0.53,0.1,0.69,0.22c0.19-0.15,0.5-0.39,0.8-0.58C64.41,55.18,64.82,55.03,65.09,54.95"/>
		<path class="st3" d="M62.55,55.72c-0.54-0.08-0.9,0.05-0.9,0.05s0.12,0.25,0.77,0.43c0,0,0.01,0,0.02,0    c0.41,0.12,0.66,0.09,0.8,0.01c0.09-0.05,0.13-0.12,0.12-0.18c-0.01-0.03-0.03-0.07-0.07-0.09c-0.15-0.12-0.52-0.19-0.69-0.22    C62.59,55.72,62.56,55.72,62.55,55.72"/>
		<path class="st4" d="M66.51,57.7c-0.31-0.01-0.78,0-1.14,0.08c-0.43,0.09-0.96,0.32-1.21,0.44c-0.05,0.16-0.15,0.33-0.23,0.46    c-0.02,0.04-0.05,0.08-0.08,0.12c0.14,0.17,0.72,0.8,1.7,0.67c1.12-0.14,1.4-0.91,1.45-1.09c-0.03-0.03-0.05-0.06-0.07-0.09    C66.73,58.08,66.59,57.87,66.51,57.7"/>
		<path class="st4" d="M67.82,55.6c-0.11,0.06-0.22,0.11-0.29,0.14c-0.29,0.11-0.54,0.21-0.7,0.22c-0.06,0.18-0.13,0.42-0.15,0.7    c-0.02,0.27,0.03,0.58,0.07,0.78c0.13,0.1,0.3,0.27,0.48,0.51c0.02,0.02,0.03,0.04,0.05,0.07c0.05,0.07,0.08,0.12,0.11,0.18    c0.33,0.01,1.06-0.08,1.22-1.12C68.79,55.91,67.98,55.64,67.82,55.6"/>
		<path class="st4" d="M67.69,55.32c0.03-0.14,0.25-1.27-0.77-1.79c-0.71-0.37-1.3,0.01-1.6,0.27c0.01,0.06,0.02,0.12,0.03,0.19    c0.04,0.35,0.03,0.69-0.03,0.87c0.08,0.07,0.39,0.3,0.73,0.46c0.3,0.14,0.68,0.25,0.78,0.28c0.15-0.07,0.34-0.14,0.55-0.2    C67.48,55.36,67.59,55.34,67.69,55.32"/>
		<path class="st3" d="M65.35,53.99c0-0.07-0.02-0.14-0.03-0.19c-0.09-0.38-0.27-0.44-0.27-0.44s-0.18,0.11-0.16,0.65    c0,0.03,0,0.05,0,0.08c0.03,0.43,0.1,0.72,0.19,0.85c0.04,0.05,0.08,0.07,0.13,0.07c0.05,0,0.08-0.06,0.1-0.14    c0,0,0.01,0,0.01-0.01C65.39,54.68,65.4,54.35,65.35,53.99"/>
		<path class="st3" d="M67.82,55.6c0.26-0.14,0.54-0.31,0.52-0.33c-0.01-0.02-0.32-0.01-0.65,0.05c-0.1,0.02-0.21,0.04-0.31,0.08    c-0.2,0.06-0.4,0.13-0.55,0.2c-0.15,0.08-0.23,0.17-0.2,0.26c0.02,0.07,0.09,0.1,0.19,0.1c0.16-0.01,0.41-0.11,0.7-0.22    C67.6,55.71,67.7,55.66,67.82,55.6"/>
		<path class="st3" d="M67.23,57.95c-0.19-0.24-0.35-0.41-0.48-0.51c-0.05-0.04-0.1-0.07-0.15-0.09c-0.06-0.02-0.11-0.02-0.14,0.01    c-0.04,0.04-0.04,0.1-0.01,0.18c0.01,0.04,0.03,0.1,0.06,0.15c0.08,0.17,0.23,0.39,0.4,0.59c0.03,0.03,0.05,0.06,0.08,0.09    c0.02,0.02,0.04,0.04,0.06,0.05c0.26,0.24,0.5,0.26,0.5,0.26s0-0.2-0.16-0.48c-0.03-0.06-0.07-0.11-0.11-0.18    C67.26,58,67.25,57.98,67.23,57.95"/>
		<path class="st5" d="M65.86,56.21c0.09,0.35-0.2,0.73-0.64,0.85c-0.45,0.11-0.88-0.08-0.97-0.43c-0.09-0.35,0.2-0.72,0.64-0.84    C65.33,55.68,65.77,55.86,65.86,56.21"/>
		<path class="st3" d="M88.03,58.22c0.04-0.13,0.04-0.24-0.02-0.31c-0.04-0.05-0.11-0.05-0.19,0c-0.14,0.08-0.3,0.29-0.41,0.59    c-0.02,0.05-0.03,0.09-0.05,0.14c-0.13,0.41-0.13,0.72-0.13,0.72s0.31-0.31,0.5-0.56c0.03-0.04,0.05-0.08,0.07-0.12    C87.88,58.54,87.98,58.37,88.03,58.22"/>
		<path class="st4" d="M86.32,56.21c-0.22,0.16-0.78,0.66-0.45,1.46c0.38,0.92,1.26,0.97,1.49,0.97c0.01-0.05,0.03-0.09,0.04-0.14    c0.11-0.3,0.28-0.51,0.41-0.59c-0.04-0.27-0.1-0.63-0.19-0.85c-0.11-0.28-0.37-0.64-0.51-0.83C86.99,56.3,86.74,56.33,86.32,56.21    "/>
		<path class="st4" d="M88.97,54.95c-0.09-0.13-0.15-0.42-0.19-0.85c-0.01-0.04,0-0.06-0.01-0.08c-0.23-0.2-1.08-0.78-1.89-0.12    c-0.83,0.67-0.53,1.54-0.39,1.84c0.16,0.03,0.54,0.1,0.69,0.22c0.19-0.15,0.5-0.39,0.8-0.58C88.29,55.18,88.7,55.03,88.97,54.95"/>
		<path class="st3" d="M86.43,55.72c-0.54-0.08-0.89,0.05-0.89,0.05s0.12,0.25,0.77,0.43c0.01,0,0.01,0,0.01,0    c0.42,0.12,0.67,0.09,0.81,0.01c0.1-0.05,0.13-0.12,0.13-0.18c-0.01-0.03-0.03-0.07-0.07-0.09c-0.15-0.12-0.52-0.19-0.69-0.22    C86.46,55.72,86.43,55.72,86.43,55.72"/>
		<path class="st4" d="M90.38,57.7c-0.31-0.01-0.77,0-1.14,0.08c-0.43,0.09-0.95,0.32-1.21,0.44c-0.05,0.16-0.15,0.33-0.23,0.46    c-0.02,0.04-0.05,0.08-0.07,0.12c0.14,0.17,0.71,0.8,1.69,0.67c1.11-0.14,1.39-0.91,1.45-1.09c-0.02-0.03-0.05-0.06-0.08-0.09    C90.61,58.08,90.47,57.87,90.38,57.7"/>
		<path class="st4" d="M91.7,55.6c-0.11,0.06-0.22,0.11-0.29,0.14c-0.29,0.11-0.54,0.21-0.7,0.22c-0.07,0.18-0.13,0.42-0.15,0.7    c-0.02,0.27,0.03,0.58,0.07,0.78c0.13,0.1,0.29,0.27,0.48,0.51c0.02,0.02,0.03,0.04,0.05,0.07c0.05,0.07,0.08,0.12,0.12,0.18    c0.33,0.01,1.06-0.08,1.22-1.12C92.67,55.91,91.86,55.64,91.7,55.6"/>
		<path class="st4" d="M91.57,55.32c0.03-0.14,0.25-1.27-0.76-1.79c-0.71-0.37-1.31,0.01-1.6,0.27c0.01,0.06,0.02,0.12,0.03,0.19    c0.04,0.35,0.03,0.69-0.03,0.87c0.08,0.07,0.39,0.3,0.73,0.46c0.3,0.14,0.68,0.25,0.78,0.28c0.14-0.07,0.34-0.14,0.54-0.2    C91.36,55.36,91.46,55.34,91.57,55.32"/>
		<path class="st3" d="M89.23,53.99c-0.01-0.07-0.02-0.14-0.03-0.19c-0.08-0.38-0.26-0.44-0.26-0.44s-0.18,0.11-0.17,0.65    c0.01,0.03,0,0.05,0.01,0.08c0.03,0.43,0.1,0.72,0.19,0.85c0.04,0.05,0.08,0.07,0.13,0.07c0.05,0,0.08-0.06,0.1-0.14    c0,0,0,0,0-0.01C89.27,54.68,89.28,54.35,89.23,53.99"/>
		<path class="st3" d="M91.7,55.6c0.25-0.14,0.53-0.31,0.52-0.33c-0.01-0.02-0.32-0.01-0.65,0.05c-0.11,0.02-0.21,0.04-0.31,0.08    c-0.2,0.06-0.4,0.13-0.54,0.2c-0.15,0.08-0.24,0.17-0.2,0.26c0.02,0.07,0.09,0.1,0.19,0.1c0.16-0.01,0.41-0.11,0.7-0.22    C91.48,55.71,91.59,55.66,91.7,55.6"/>
		<path class="st3" d="M91.1,57.95c-0.19-0.24-0.35-0.41-0.48-0.51c-0.05-0.04-0.11-0.07-0.15-0.09c-0.06-0.02-0.11-0.02-0.14,0.01    c-0.03,0.04-0.03,0.1-0.01,0.18c0.01,0.04,0.03,0.1,0.06,0.15c0.09,0.17,0.23,0.39,0.41,0.59c0.02,0.03,0.05,0.06,0.08,0.09    c0.02,0.02,0.04,0.04,0.05,0.05c0.27,0.24,0.5,0.26,0.5,0.26s0-0.2-0.15-0.48c-0.03-0.06-0.07-0.11-0.12-0.18    C91.14,58,91.13,57.98,91.1,57.95"/>
		<path class="st5" d="M89.74,56.21c0.09,0.35-0.2,0.73-0.64,0.85c-0.45,0.11-0.88-0.08-0.97-0.43c-0.09-0.35,0.2-0.72,0.64-0.84    C89.21,55.68,89.65,55.86,89.74,56.21"/>
		<path class="st3" d="M40.09,58.22c0.04-0.13,0.05-0.24-0.02-0.31c-0.04-0.05-0.11-0.05-0.19,0c-0.14,0.08-0.3,0.29-0.41,0.59    c-0.02,0.05-0.03,0.09-0.05,0.14c-0.14,0.41-0.14,0.72-0.14,0.72s0.31-0.31,0.5-0.56c0.03-0.04,0.05-0.08,0.07-0.12    C39.95,58.54,40.05,58.37,40.09,58.22"/>
		<path class="st4" d="M38.39,56.21c-0.22,0.16-0.78,0.66-0.45,1.46c0.39,0.92,1.26,0.97,1.49,0.97c0.01-0.05,0.02-0.09,0.05-0.14    c0.11-0.3,0.28-0.51,0.41-0.59c-0.04-0.27-0.1-0.62-0.18-0.85c-0.11-0.28-0.36-0.64-0.5-0.83C39.06,56.3,38.8,56.33,38.39,56.21"/>
		<path class="st4" d="M41.03,54.95c-0.09-0.13-0.16-0.42-0.19-0.85c0-0.04,0-0.06,0-0.08c-0.24-0.2-1.08-0.78-1.89-0.12    c-0.83,0.67-0.53,1.54-0.39,1.84c0.16,0.03,0.53,0.1,0.68,0.22c0.19-0.15,0.51-0.39,0.8-0.58C40.36,55.18,40.77,55.03,41.03,54.95    "/>
		<path class="st3" d="M38.49,55.72c-0.53-0.08-0.89,0.05-0.89,0.05s0.12,0.25,0.77,0.43c0.01,0,0.01,0,0.01,0    c0.42,0.12,0.67,0.09,0.81,0.01c0.09-0.05,0.13-0.12,0.12-0.18c0-0.03-0.03-0.07-0.07-0.09c-0.15-0.12-0.53-0.19-0.68-0.22    C38.53,55.72,38.5,55.72,38.49,55.72"/>
		<path class="st4" d="M42.45,57.7c-0.31-0.01-0.78,0-1.14,0.08c-0.43,0.09-0.95,0.32-1.22,0.44c-0.05,0.16-0.15,0.33-0.23,0.46    c-0.02,0.04-0.05,0.08-0.08,0.12c0.14,0.17,0.72,0.8,1.69,0.67c1.11-0.14,1.39-0.91,1.44-1.09c-0.02-0.03-0.05-0.06-0.08-0.09    C42.68,58.08,42.53,57.87,42.45,57.7"/>
		<path class="st4" d="M43.76,55.6c-0.11,0.06-0.21,0.11-0.29,0.14c-0.29,0.11-0.55,0.21-0.71,0.22c-0.06,0.17-0.13,0.42-0.15,0.7    c-0.01,0.27,0.03,0.58,0.07,0.78c0.13,0.1,0.29,0.27,0.48,0.51c0.02,0.02,0.03,0.04,0.05,0.07c0.05,0.07,0.08,0.12,0.11,0.18    c0.33,0.01,1.06-0.08,1.22-1.12C44.73,55.91,43.93,55.64,43.76,55.6"/>
		<path class="st4" d="M43.63,55.32c0.03-0.14,0.24-1.27-0.77-1.79c-0.71-0.37-1.3,0.01-1.6,0.27c0.02,0.06,0.02,0.12,0.03,0.19    c0.05,0.35,0.03,0.69-0.03,0.87c0.09,0.07,0.4,0.3,0.73,0.46c0.3,0.14,0.68,0.25,0.78,0.28c0.14-0.07,0.34-0.14,0.55-0.2    C43.43,55.36,43.53,55.34,43.63,55.32"/>
		<path class="st3" d="M41.3,53.99c-0.01-0.07-0.01-0.14-0.03-0.19C41.18,53.42,41,53.36,41,53.36s-0.18,0.11-0.16,0.65    c0,0.03,0,0.05,0,0.08c0.03,0.43,0.1,0.72,0.19,0.85c0.04,0.05,0.08,0.07,0.13,0.07c0.05,0,0.08-0.06,0.11-0.14v-0.01    C41.33,54.68,41.34,54.35,41.3,53.99"/>
		<path class="st3" d="M43.76,55.6c0.26-0.14,0.54-0.31,0.53-0.33c-0.01-0.02-0.33-0.01-0.65,0.05c-0.1,0.02-0.21,0.04-0.31,0.08    c-0.2,0.06-0.4,0.13-0.55,0.2c-0.15,0.08-0.23,0.17-0.2,0.26c0.02,0.07,0.09,0.1,0.19,0.1c0.16-0.01,0.41-0.11,0.71-0.22    C43.55,55.71,43.65,55.66,43.76,55.6"/>
		<path class="st3" d="M43.17,57.95c-0.19-0.24-0.35-0.41-0.48-0.51c-0.05-0.04-0.1-0.07-0.15-0.09c-0.06-0.02-0.11-0.02-0.15,0.01    c-0.03,0.04-0.03,0.1-0.01,0.18c0.01,0.04,0.03,0.1,0.06,0.15c0.08,0.17,0.23,0.39,0.4,0.59c0.03,0.03,0.05,0.06,0.08,0.09    c0.02,0.02,0.04,0.04,0.05,0.05c0.27,0.24,0.51,0.25,0.51,0.25s0-0.2-0.16-0.48c-0.03-0.06-0.07-0.11-0.11-0.18    C43.21,58,43.19,57.98,43.17,57.95"/>
		<path class="st5" d="M41.8,56.21c0.09,0.35-0.2,0.73-0.65,0.85c-0.44,0.11-0.88-0.08-0.97-0.43c-0.09-0.35,0.2-0.72,0.64-0.84    C41.28,55.68,41.72,55.86,41.8,56.21"/>
		<path class="st3" d="M64.15,35.96c0.04-0.13,0.05-0.24-0.01-0.32c-0.04-0.05-0.12-0.04-0.2,0c-0.14,0.09-0.3,0.29-0.41,0.59    c-0.02,0.05-0.03,0.09-0.05,0.14c-0.13,0.41-0.13,0.73-0.13,0.73s0.31-0.31,0.5-0.56c0.03-0.04,0.06-0.08,0.08-0.11    C64,36.29,64.1,36.12,64.15,35.96"/>
		<path class="st4" d="M62.45,33.96c-0.22,0.16-0.79,0.66-0.46,1.46c0.39,0.92,1.26,0.97,1.48,0.96c0.02-0.04,0.03-0.09,0.05-0.14    c0.11-0.3,0.28-0.51,0.41-0.59c-0.04-0.27-0.1-0.63-0.19-0.84c-0.11-0.28-0.36-0.64-0.5-0.84C63.11,34.04,62.86,34.07,62.45,33.96    "/>
		<path class="st4" d="M65.09,32.69c-0.09-0.12-0.16-0.42-0.19-0.85c0-0.03,0-0.06,0-0.08c-0.24-0.19-1.09-0.77-1.89-0.11    c-0.83,0.67-0.52,1.54-0.39,1.84c0.16,0.02,0.53,0.1,0.69,0.22c0.19-0.15,0.5-0.39,0.8-0.58C64.41,32.92,64.82,32.78,65.09,32.69"/>
		<path class="st3" d="M62.55,33.47c-0.54-0.08-0.9,0.05-0.9,0.05s0.12,0.25,0.77,0.43c0,0,0.01,0,0.02,0    c0.41,0.12,0.66,0.08,0.8,0.01c0.09-0.05,0.13-0.13,0.12-0.18c-0.01-0.03-0.03-0.06-0.07-0.09c-0.15-0.12-0.52-0.19-0.69-0.22    C62.59,33.47,62.56,33.47,62.55,33.47"/>
		<path class="st4" d="M66.51,35.44c-0.31-0.01-0.78,0-1.14,0.08c-0.43,0.09-0.96,0.32-1.21,0.44c-0.05,0.16-0.15,0.32-0.23,0.46    c-0.02,0.03-0.05,0.07-0.08,0.11c0.14,0.17,0.72,0.8,1.7,0.68c1.12-0.14,1.4-0.91,1.45-1.1c-0.03-0.02-0.05-0.05-0.07-0.09    C66.73,35.83,66.59,35.61,66.51,35.44"/>
		<path class="st4" d="M67.82,33.34c-0.11,0.06-0.22,0.11-0.29,0.14c-0.29,0.11-0.54,0.21-0.7,0.22c-0.06,0.17-0.13,0.42-0.15,0.7    c-0.02,0.27,0.03,0.58,0.07,0.78c0.13,0.1,0.3,0.27,0.48,0.51c0.02,0.02,0.03,0.04,0.05,0.07c0.05,0.06,0.08,0.12,0.11,0.18    c0.33,0.01,1.06-0.08,1.22-1.12C68.79,33.66,67.98,33.39,67.82,33.34"/>
		<path class="st4" d="M67.69,33.07c0.03-0.14,0.25-1.27-0.77-1.79c-0.71-0.37-1.3,0.01-1.6,0.27c0.01,0.06,0.02,0.12,0.03,0.19    c0.04,0.36,0.03,0.69-0.03,0.87c0.08,0.07,0.39,0.3,0.73,0.46c0.3,0.14,0.68,0.25,0.78,0.28c0.15-0.07,0.34-0.14,0.55-0.21    C67.48,33.11,67.59,33.09,67.69,33.07"/>
		<path class="st3" d="M65.35,31.74c0-0.07-0.02-0.14-0.03-0.19c-0.09-0.38-0.27-0.44-0.27-0.44s-0.18,0.11-0.16,0.64    c0,0.03,0,0.05,0,0.09c0.03,0.43,0.1,0.73,0.19,0.85c0.04,0.05,0.08,0.08,0.13,0.07c0.05-0.01,0.08-0.06,0.1-0.14    c0,0,0.01-0.01,0.01-0.01C65.39,32.43,65.4,32.1,65.35,31.74"/>
		<path class="st3" d="M67.82,33.34c0.26-0.14,0.54-0.31,0.52-0.33C68.33,33,68.02,33,67.69,33.07c-0.1,0.02-0.21,0.04-0.31,0.08    c-0.2,0.07-0.4,0.13-0.55,0.21c-0.15,0.08-0.23,0.16-0.2,0.26c0.02,0.07,0.09,0.09,0.19,0.09c0.16-0.01,0.41-0.11,0.7-0.22    C67.6,33.46,67.7,33.4,67.82,33.34"/>
		<path class="st3" d="M67.23,35.7c-0.19-0.24-0.35-0.41-0.48-0.51c-0.05-0.04-0.1-0.07-0.15-0.09c-0.06-0.02-0.11-0.02-0.14,0.01    c-0.04,0.04-0.04,0.1-0.01,0.18c0.01,0.05,0.03,0.1,0.06,0.16c0.08,0.17,0.23,0.39,0.4,0.59c0.03,0.03,0.05,0.06,0.08,0.09    c0.02,0.02,0.04,0.04,0.06,0.06c0.26,0.24,0.5,0.25,0.5,0.25s0-0.19-0.16-0.48c-0.03-0.05-0.07-0.11-0.11-0.18    C67.26,35.74,67.25,35.72,67.23,35.7"/>
		<path class="st5" d="M65.86,33.96c0.09,0.35-0.2,0.73-0.64,0.85c-0.45,0.11-0.88-0.07-0.97-0.42c-0.09-0.35,0.2-0.73,0.64-0.85    C65.33,33.42,65.77,33.61,65.86,33.96"/>
		<path class="st3" d="M39.79,35.96c0.04-0.13,0.05-0.24-0.02-0.32c-0.04-0.05-0.11-0.04-0.19,0c-0.14,0.08-0.3,0.29-0.42,0.59    c-0.02,0.05-0.04,0.09-0.05,0.14c-0.13,0.41-0.13,0.73-0.13,0.73s0.31-0.31,0.5-0.56c0.03-0.04,0.05-0.08,0.07-0.11    C39.64,36.29,39.74,36.12,39.79,35.96"/>
		<path class="st4" d="M38.09,33.96c-0.22,0.16-0.78,0.66-0.45,1.46c0.38,0.92,1.26,0.97,1.48,0.96c0.01-0.04,0.03-0.09,0.05-0.14    c0.11-0.3,0.28-0.51,0.42-0.59c-0.04-0.27-0.1-0.63-0.19-0.84c-0.12-0.28-0.36-0.64-0.51-0.84C38.75,34.04,38.5,34.07,38.09,33.96    "/>
		<path class="st4" d="M40.73,32.69c-0.09-0.12-0.15-0.42-0.19-0.85v-0.08c-0.24-0.19-1.09-0.77-1.89-0.11    c-0.83,0.67-0.53,1.54-0.39,1.84c0.16,0.02,0.54,0.1,0.69,0.22c0.19-0.15,0.5-0.39,0.8-0.58C40.06,32.92,40.47,32.78,40.73,32.69"/>
		<path class="st3" d="M38.19,33.47c-0.53-0.08-0.9,0.05-0.9,0.05s0.13,0.25,0.78,0.43c0,0,0,0,0.01,0.01    c0.41,0.12,0.67,0.08,0.8,0.01c0.09-0.05,0.13-0.13,0.13-0.18c-0.01-0.03-0.03-0.06-0.07-0.09c-0.15-0.12-0.52-0.19-0.69-0.22    C38.22,33.47,38.2,33.47,38.19,33.47"/>
		<path class="st4" d="M42.14,35.44c-0.3-0.01-0.77,0-1.14,0.08c-0.43,0.09-0.95,0.32-1.21,0.44c-0.05,0.16-0.15,0.32-0.23,0.46    c-0.02,0.03-0.05,0.07-0.07,0.11c0.14,0.17,0.71,0.8,1.69,0.68c1.12-0.14,1.4-0.91,1.45-1.1c-0.03-0.02-0.05-0.05-0.08-0.09    C42.37,35.83,42.23,35.61,42.14,35.44"/>
		<path class="st4" d="M43.46,33.34c-0.11,0.06-0.22,0.11-0.29,0.14c-0.29,0.11-0.55,0.21-0.71,0.22c-0.06,0.17-0.13,0.42-0.15,0.7    c-0.02,0.27,0.03,0.58,0.07,0.78c0.13,0.1,0.3,0.27,0.48,0.51c0.02,0.02,0.03,0.04,0.05,0.07c0.04,0.06,0.08,0.12,0.11,0.18    c0.33,0.01,1.06-0.08,1.22-1.12C44.43,33.66,43.62,33.39,43.46,33.34"/>
		<path class="st4" d="M43.33,33.07c0.03-0.14,0.25-1.27-0.76-1.79c-0.71-0.37-1.31,0.01-1.6,0.27c0.01,0.06,0.02,0.12,0.03,0.19    c0.04,0.36,0.03,0.69-0.03,0.87c0.08,0.07,0.39,0.3,0.73,0.46c0.3,0.14,0.68,0.25,0.78,0.28c0.14-0.07,0.34-0.14,0.55-0.21    C43.12,33.11,43.23,33.09,43.33,33.07"/>
		<path class="st3" d="M41,31.74c-0.01-0.07-0.02-0.14-0.03-0.19c-0.08-0.38-0.26-0.44-0.26-0.44s-0.18,0.11-0.16,0.64v0.09    c0.03,0.43,0.1,0.73,0.19,0.85c0.04,0.05,0.08,0.08,0.13,0.07c0.05-0.01,0.08-0.06,0.11-0.14v-0.01    C41.03,32.43,41.04,32.1,41,31.74"/>
		<path class="st3" d="M43.46,33.34c0.25-0.14,0.54-0.31,0.52-0.33C43.97,33,43.66,33,43.33,33.07c-0.1,0.02-0.21,0.04-0.31,0.08    c-0.2,0.07-0.4,0.13-0.55,0.21c-0.15,0.08-0.23,0.16-0.2,0.26c0.02,0.07,0.09,0.09,0.19,0.09c0.16-0.01,0.41-0.11,0.71-0.22    C43.25,33.46,43.35,33.4,43.46,33.34"/>
		<path class="st3" d="M42.87,35.7c-0.19-0.24-0.35-0.41-0.48-0.51c-0.05-0.04-0.1-0.07-0.15-0.09c-0.06-0.02-0.11-0.02-0.14,0.01    c-0.03,0.04-0.03,0.1-0.01,0.18c0.01,0.05,0.03,0.1,0.06,0.16c0.09,0.17,0.23,0.39,0.41,0.59c0.03,0.03,0.05,0.06,0.08,0.09    c0.02,0.02,0.04,0.04,0.06,0.06c0.27,0.24,0.5,0.25,0.5,0.25s0-0.19-0.16-0.48c-0.03-0.05-0.07-0.11-0.11-0.18    C42.9,35.74,42.89,35.72,42.87,35.7"/>
		<path class="st5" d="M41.5,33.96c0.09,0.35-0.2,0.73-0.64,0.85c-0.44,0.11-0.88-0.07-0.97-0.42c-0.09-0.35,0.2-0.73,0.64-0.85    C40.98,33.42,41.41,33.61,41.5,33.96"/>
		<path class="st3" d="M88.57,35.96c0.04-0.13,0.05-0.24-0.01-0.32c-0.04-0.05-0.11-0.04-0.19,0c-0.14,0.09-0.3,0.29-0.41,0.59    c-0.02,0.05-0.03,0.09-0.05,0.14c-0.14,0.41-0.13,0.73-0.13,0.73s0.31-0.31,0.5-0.56c0.03-0.04,0.05-0.08,0.07-0.11    C88.42,36.29,88.52,36.12,88.57,35.96"/>
		<path class="st4" d="M86.86,33.96c-0.22,0.16-0.78,0.66-0.45,1.46c0.39,0.92,1.27,0.97,1.49,0.96c0.01-0.04,0.03-0.09,0.05-0.14    c0.11-0.3,0.28-0.51,0.41-0.59c-0.04-0.27-0.1-0.63-0.18-0.84c-0.11-0.28-0.37-0.64-0.51-0.84    C87.53,34.04,87.28,34.07,86.86,33.96"/>
		<path class="st4" d="M89.51,32.69c-0.09-0.12-0.15-0.42-0.18-0.85c0-0.03,0-0.06,0-0.08c-0.24-0.19-1.08-0.77-1.89-0.11    c-0.83,0.67-0.53,1.54-0.38,1.84c0.16,0.02,0.53,0.1,0.69,0.22c0.18-0.15,0.5-0.39,0.8-0.58C88.84,32.92,89.25,32.78,89.51,32.69"/>
		<path class="st3" d="M86.97,33.47c-0.53-0.08-0.89,0.05-0.89,0.05s0.12,0.25,0.78,0.43c0,0,0.01,0,0.01,0    c0.42,0.12,0.67,0.08,0.8,0.01c0.1-0.05,0.14-0.13,0.13-0.18c0-0.03-0.03-0.06-0.06-0.09c-0.15-0.12-0.53-0.19-0.69-0.22    C87,33.47,86.98,33.47,86.97,33.47"/>
		<path class="st4" d="M90.93,35.44c-0.31-0.01-0.78,0-1.14,0.08c-0.43,0.09-0.96,0.32-1.22,0.44c-0.05,0.16-0.14,0.32-0.23,0.46    c-0.02,0.03-0.05,0.07-0.07,0.11c0.14,0.17,0.72,0.8,1.69,0.68c1.12-0.14,1.4-0.91,1.45-1.1c-0.02-0.02-0.05-0.05-0.08-0.09    C91.15,35.83,91.01,35.61,90.93,35.44"/>
		<path class="st4" d="M92.24,33.34c-0.11,0.06-0.22,0.11-0.29,0.14c-0.29,0.11-0.55,0.21-0.71,0.22c-0.06,0.17-0.13,0.42-0.15,0.7    c-0.01,0.27,0.03,0.58,0.07,0.78c0.13,0.1,0.29,0.27,0.48,0.51c0.02,0.02,0.03,0.04,0.05,0.07c0.05,0.06,0.08,0.12,0.11,0.18    c0.33,0.01,1.06-0.08,1.22-1.12C93.21,33.66,92.4,33.39,92.24,33.34"/>
		<path class="st4" d="M92.11,33.07c0.03-0.14,0.24-1.27-0.77-1.79c-0.71-0.37-1.3,0.01-1.6,0.27c0.02,0.06,0.03,0.12,0.04,0.19    c0.04,0.36,0.03,0.69-0.03,0.87c0.08,0.07,0.39,0.3,0.72,0.46c0.31,0.14,0.68,0.25,0.78,0.28c0.14-0.07,0.35-0.14,0.55-0.21    C91.9,33.11,92,33.09,92.11,33.07"/>
		<path class="st3" d="M89.78,31.74c-0.01-0.07-0.02-0.14-0.04-0.19c-0.08-0.38-0.26-0.44-0.26-0.44s-0.18,0.11-0.16,0.64    c0,0.03,0,0.05,0,0.08c0.03,0.43,0.1,0.73,0.18,0.85c0.04,0.05,0.08,0.07,0.13,0.07c0.04-0.01,0.08-0.06,0.1-0.14    c0,0,0-0.01,0-0.01C89.81,32.43,89.82,32.1,89.78,31.74"/>
		<path class="st3" d="M92.24,33.34c0.25-0.14,0.54-0.31,0.52-0.33C92.75,33,92.43,33,92.11,33.07c-0.11,0.02-0.21,0.04-0.31,0.07    c-0.2,0.07-0.41,0.13-0.55,0.21c-0.15,0.08-0.23,0.16-0.2,0.26c0.02,0.07,0.09,0.09,0.19,0.09c0.16-0.01,0.42-0.11,0.71-0.22    C92.02,33.46,92.13,33.4,92.24,33.34"/>
		<path class="st3" d="M91.65,35.7c-0.19-0.24-0.35-0.41-0.48-0.51c-0.06-0.04-0.1-0.07-0.15-0.09c-0.06-0.02-0.11-0.02-0.15,0.01    c-0.03,0.04-0.03,0.1-0.01,0.18c0.01,0.05,0.03,0.1,0.06,0.16c0.08,0.17,0.22,0.39,0.4,0.59c0.03,0.03,0.05,0.06,0.08,0.09    c0.02,0.02,0.04,0.04,0.06,0.06c0.27,0.24,0.5,0.25,0.5,0.25s0-0.19-0.15-0.48c-0.03-0.05-0.07-0.11-0.11-0.18    C91.68,35.74,91.66,35.72,91.65,35.7"/>
		<path class="st5" d="M90.28,33.96c0.09,0.35-0.19,0.73-0.64,0.85c-0.45,0.11-0.88-0.07-0.97-0.42c-0.09-0.35,0.2-0.73,0.64-0.85    C89.76,33.42,90.19,33.61,90.28,33.96"/>
		<path class="st3" d="M64.15,13.71c0.04-0.13,0.05-0.24-0.01-0.32c-0.04-0.05-0.12-0.05-0.2,0c-0.14,0.08-0.3,0.29-0.41,0.59    c-0.02,0.05-0.03,0.09-0.05,0.14c-0.13,0.41-0.13,0.72-0.13,0.72s0.31-0.31,0.5-0.56c0.03-0.04,0.06-0.08,0.08-0.11    C64,14.04,64.1,13.86,64.15,13.71"/>
		<path class="st4" d="M62.45,11.7c-0.22,0.16-0.79,0.66-0.46,1.46c0.39,0.92,1.26,0.96,1.48,0.96c0.02-0.04,0.03-0.09,0.05-0.14    c0.11-0.3,0.28-0.51,0.41-0.59c-0.04-0.27-0.1-0.62-0.19-0.84c-0.11-0.28-0.36-0.64-0.5-0.84C63.11,11.79,62.86,11.82,62.45,11.7"/>
		<path class="st4" d="M65.09,10.44c-0.09-0.12-0.16-0.42-0.19-0.85c0-0.03,0-0.06,0-0.08c-0.24-0.19-1.09-0.77-1.89-0.12    c-0.83,0.68-0.52,1.54-0.38,1.84c0.16,0.03,0.53,0.1,0.69,0.22c0.19-0.15,0.5-0.39,0.8-0.57C64.42,10.67,64.82,10.53,65.09,10.44"/>
		<path class="st3" d="M62.55,11.21c-0.54-0.08-0.9,0.05-0.9,0.05s0.12,0.25,0.77,0.43c0,0,0.01,0,0.02,0    c0.41,0.12,0.66,0.08,0.8,0.01c0.09-0.05,0.13-0.13,0.12-0.18c-0.01-0.03-0.03-0.06-0.07-0.09c-0.15-0.12-0.52-0.19-0.69-0.22    C62.59,11.22,62.56,11.21,62.55,11.21"/>
		<path class="st4" d="M66.51,13.19c-0.31-0.01-0.78,0-1.14,0.08c-0.43,0.09-0.96,0.32-1.21,0.44c-0.05,0.15-0.15,0.32-0.23,0.46    c-0.02,0.03-0.05,0.07-0.08,0.11c0.14,0.17,0.72,0.8,1.7,0.67c1.12-0.14,1.4-0.91,1.45-1.1c-0.03-0.02-0.05-0.05-0.07-0.08    C66.73,13.58,66.59,13.37,66.51,13.19"/>
		<path class="st4" d="M67.82,11.09c-0.11,0.06-0.22,0.11-0.29,0.14c-0.29,0.11-0.54,0.21-0.7,0.22c-0.06,0.17-0.13,0.42-0.15,0.7    c-0.02,0.28,0.03,0.58,0.07,0.79c0.13,0.1,0.3,0.27,0.48,0.51c0.02,0.02,0.03,0.04,0.05,0.07c0.05,0.06,0.08,0.12,0.11,0.18    c0.33,0.01,1.06-0.08,1.22-1.12C68.79,11.4,67.98,11.13,67.82,11.09"/>
		<path class="st4" d="M67.69,10.81c0.03-0.14,0.25-1.27-0.77-1.79c-0.71-0.36-1.3,0.01-1.6,0.27c0.01,0.06,0.02,0.12,0.03,0.19    c0.04,0.36,0.03,0.69-0.03,0.87c0.08,0.07,0.39,0.3,0.73,0.46c0.3,0.14,0.68,0.25,0.78,0.28c0.15-0.07,0.34-0.14,0.55-0.21    C67.48,10.86,67.59,10.83,67.69,10.81"/>
		<path class="st3" d="M65.35,9.49c0-0.07-0.02-0.14-0.03-0.19c-0.09-0.38-0.27-0.44-0.27-0.44S64.88,8.97,64.9,9.5    c0,0.03,0,0.05,0,0.09c0.03,0.43,0.1,0.73,0.19,0.85c0.04,0.05,0.08,0.08,0.13,0.07c0.05-0.01,0.08-0.07,0.1-0.14c0,0,0,0,0-0.01    C65.39,10.17,65.4,9.84,65.35,9.49"/>
		<path class="st3" d="M67.82,11.09c0.26-0.14,0.54-0.31,0.52-0.33c-0.01-0.02-0.32-0.01-0.65,0.05c-0.1,0.02-0.21,0.04-0.31,0.08    c-0.2,0.06-0.4,0.14-0.55,0.21c-0.15,0.08-0.23,0.17-0.2,0.27c0.02,0.07,0.09,0.1,0.19,0.09c0.16-0.01,0.41-0.11,0.7-0.22    C67.6,11.2,67.7,11.15,67.82,11.09"/>
		<path class="st3" d="M67.23,13.45c-0.19-0.24-0.35-0.42-0.48-0.51c-0.05-0.04-0.1-0.08-0.15-0.09c-0.06-0.02-0.11-0.02-0.14,0.02    c-0.04,0.03-0.04,0.09-0.01,0.17c0.01,0.05,0.03,0.1,0.06,0.16c0.08,0.17,0.23,0.38,0.4,0.59c0.03,0.03,0.05,0.06,0.08,0.08    c0.02,0.02,0.04,0.04,0.06,0.06c0.26,0.24,0.5,0.25,0.5,0.25s0-0.2-0.16-0.48c-0.03-0.06-0.07-0.12-0.11-0.18    C67.26,13.49,67.25,13.47,67.23,13.45"/>
		<path class="st5" d="M65.86,11.71c0.09,0.35-0.2,0.73-0.64,0.84c-0.45,0.12-0.88-0.07-0.97-0.42c-0.09-0.35,0.2-0.73,0.64-0.85    C65.33,11.17,65.77,11.36,65.86,11.71"/>
		<path class="st3" d="M39.79,13.71c0.04-0.13,0.05-0.24-0.02-0.32c-0.04-0.05-0.11-0.05-0.19,0c-0.14,0.08-0.3,0.29-0.42,0.59    c-0.02,0.05-0.04,0.09-0.05,0.14c-0.13,0.41-0.13,0.72-0.13,0.72s0.31-0.31,0.5-0.56c0.03-0.04,0.05-0.08,0.07-0.11    C39.64,14.04,39.74,13.86,39.79,13.71"/>
		<path class="st4" d="M38.09,11.7c-0.22,0.16-0.78,0.66-0.45,1.46c0.38,0.92,1.26,0.96,1.48,0.96c0.01-0.04,0.03-0.09,0.05-0.14    c0.11-0.3,0.28-0.51,0.42-0.59c-0.04-0.27-0.1-0.62-0.19-0.84c-0.12-0.28-0.36-0.64-0.51-0.84C38.75,11.79,38.5,11.82,38.09,11.7"/>
		<path class="st4" d="M40.73,10.44c-0.09-0.12-0.15-0.42-0.19-0.85V9.5c-0.24-0.19-1.09-0.77-1.89-0.12    c-0.83,0.68-0.53,1.54-0.39,1.84c0.16,0.03,0.54,0.1,0.69,0.22c0.19-0.15,0.5-0.39,0.8-0.57C40.06,10.67,40.47,10.53,40.73,10.44"/>
		<path class="st3" d="M38.19,11.21c-0.53-0.08-0.9,0.05-0.9,0.05s0.13,0.25,0.78,0.43c0,0,0,0,0.01,0c0.41,0.12,0.67,0.08,0.8,0.01    c0.09-0.05,0.13-0.13,0.13-0.18c-0.01-0.03-0.03-0.06-0.07-0.09c-0.15-0.12-0.52-0.19-0.69-0.22    C38.22,11.22,38.2,11.21,38.19,11.21"/>
		<path class="st4" d="M42.14,13.19c-0.3-0.01-0.77,0-1.14,0.08c-0.43,0.09-0.96,0.32-1.21,0.44c-0.05,0.15-0.15,0.32-0.23,0.46    c-0.02,0.03-0.05,0.07-0.07,0.11c0.14,0.17,0.71,0.8,1.69,0.67c1.12-0.14,1.4-0.91,1.45-1.1c-0.03-0.02-0.05-0.05-0.08-0.08    C42.37,13.58,42.23,13.37,42.14,13.19"/>
		<path class="st4" d="M43.46,11.09c-0.11,0.06-0.22,0.11-0.29,0.14c-0.29,0.11-0.55,0.21-0.71,0.22c-0.06,0.17-0.13,0.42-0.15,0.7    c-0.02,0.28,0.03,0.58,0.07,0.78c0.13,0.1,0.3,0.27,0.48,0.51c0.02,0.02,0.03,0.04,0.05,0.07c0.04,0.06,0.08,0.12,0.11,0.18    c0.33,0.01,1.06-0.08,1.22-1.12C44.43,11.4,43.62,11.13,43.46,11.09"/>
		<path class="st4" d="M43.33,10.81c0.03-0.14,0.25-1.27-0.76-1.79c-0.71-0.36-1.31,0.01-1.6,0.27c0.01,0.06,0.02,0.12,0.03,0.19    c0.04,0.36,0.03,0.69-0.03,0.87c0.08,0.07,0.39,0.3,0.73,0.46c0.3,0.14,0.68,0.25,0.78,0.28c0.14-0.07,0.34-0.14,0.55-0.21    C43.12,10.86,43.23,10.83,43.33,10.81"/>
		<path class="st3" d="M41,9.49c-0.01-0.07-0.02-0.14-0.03-0.19c-0.08-0.38-0.26-0.44-0.26-0.44s-0.18,0.11-0.16,0.64v0.08    c0.03,0.43,0.1,0.73,0.19,0.85c0.04,0.05,0.08,0.08,0.13,0.07c0.05-0.01,0.08-0.07,0.11-0.14c0,0,0,0,0-0.01    C41.03,10.17,41.04,9.84,41,9.49"/>
		<path class="st3" d="M43.46,11.09c0.25-0.14,0.54-0.31,0.52-0.33c-0.01-0.02-0.32-0.01-0.65,0.05c-0.1,0.02-0.21,0.04-0.31,0.08    c-0.2,0.06-0.4,0.14-0.55,0.21c-0.15,0.08-0.23,0.17-0.2,0.27c0.02,0.07,0.09,0.1,0.19,0.09c0.16-0.01,0.41-0.11,0.71-0.22    C43.25,11.2,43.35,11.15,43.46,11.09"/>
		<path class="st3" d="M42.87,13.45c-0.19-0.24-0.35-0.42-0.48-0.51c-0.05-0.04-0.1-0.07-0.15-0.09c-0.06-0.02-0.11-0.02-0.14,0.02    c-0.03,0.03-0.03,0.09-0.01,0.17c0.01,0.05,0.03,0.1,0.06,0.16c0.09,0.17,0.23,0.38,0.41,0.59c0.03,0.03,0.05,0.06,0.08,0.08    c0.02,0.02,0.04,0.04,0.06,0.06c0.27,0.24,0.5,0.25,0.5,0.25s0-0.2-0.16-0.48c-0.03-0.06-0.07-0.12-0.11-0.18    C42.9,13.49,42.89,13.47,42.87,13.45"/>
		<path class="st5" d="M41.5,11.71c0.09,0.35-0.2,0.73-0.64,0.84c-0.44,0.12-0.88-0.07-0.97-0.42c-0.09-0.35,0.2-0.73,0.64-0.85    C40.98,11.17,41.41,11.36,41.5,11.71"/>
		<path class="st3" d="M88.57,13.71c0.04-0.13,0.05-0.24-0.01-0.32c-0.04-0.05-0.11-0.05-0.19,0c-0.14,0.08-0.3,0.29-0.41,0.59    c-0.02,0.05-0.03,0.09-0.05,0.14c-0.14,0.41-0.13,0.72-0.13,0.72s0.31-0.31,0.5-0.56c0.03-0.04,0.05-0.08,0.07-0.11    C88.42,14.04,88.52,13.86,88.57,13.71"/>
		<path class="st4" d="M86.86,11.7c-0.22,0.16-0.78,0.66-0.45,1.46c0.39,0.92,1.27,0.96,1.49,0.96c0.01-0.04,0.03-0.09,0.05-0.14    c0.11-0.3,0.28-0.51,0.41-0.59c-0.04-0.27-0.1-0.62-0.18-0.84c-0.11-0.28-0.37-0.64-0.51-0.84C87.53,11.79,87.28,11.82,86.86,11.7    "/>
		<path class="st4" d="M89.51,10.44c-0.09-0.12-0.15-0.42-0.18-0.85c0-0.03,0-0.06,0-0.08c-0.24-0.19-1.08-0.77-1.89-0.12    c-0.83,0.68-0.53,1.54-0.38,1.84c0.16,0.03,0.53,0.1,0.69,0.22c0.18-0.15,0.5-0.39,0.8-0.57C88.84,10.67,89.25,10.53,89.51,10.44"/>
		<path class="st3" d="M86.97,11.21c-0.53-0.08-0.89,0.05-0.89,0.05s0.12,0.25,0.78,0.43c0,0,0.01,0.01,0.01,0.01    c0.42,0.12,0.67,0.08,0.8,0.01c0.1-0.05,0.14-0.13,0.13-0.18c0-0.03-0.03-0.06-0.06-0.09c-0.15-0.12-0.53-0.19-0.69-0.22    C87,11.22,86.98,11.21,86.97,11.21"/>
		<path class="st4" d="M90.93,13.19c-0.31-0.01-0.78,0-1.14,0.08c-0.43,0.09-0.96,0.32-1.22,0.44c-0.05,0.15-0.14,0.32-0.23,0.46    c-0.02,0.03-0.05,0.07-0.07,0.11c0.14,0.17,0.72,0.8,1.69,0.67c1.12-0.14,1.4-0.91,1.45-1.1c-0.02-0.02-0.05-0.05-0.08-0.08    C91.15,13.58,91.01,13.37,90.93,13.19"/>
		<path class="st4" d="M92.24,11.09c-0.11,0.06-0.22,0.11-0.29,0.14c-0.29,0.11-0.55,0.21-0.71,0.22c-0.06,0.17-0.13,0.42-0.15,0.7    c-0.01,0.28,0.03,0.58,0.07,0.79c0.13,0.1,0.29,0.27,0.48,0.51c0.02,0.02,0.03,0.04,0.05,0.07c0.05,0.06,0.08,0.12,0.11,0.18    c0.33,0.01,1.06-0.08,1.22-1.12C93.21,11.4,92.4,11.13,92.24,11.09"/>
		<path class="st4" d="M92.11,10.81c0.03-0.14,0.24-1.27-0.77-1.79c-0.71-0.36-1.3,0.01-1.6,0.27c0.02,0.06,0.03,0.12,0.04,0.19    c0.04,0.36,0.03,0.69-0.03,0.87c0.08,0.07,0.39,0.3,0.72,0.46c0.31,0.14,0.68,0.25,0.78,0.28c0.14-0.07,0.35-0.14,0.55-0.21    C91.9,10.86,92,10.83,92.11,10.81"/>
		<path class="st3" d="M89.78,9.49c-0.01-0.07-0.02-0.14-0.04-0.19c-0.08-0.38-0.26-0.44-0.26-0.44S89.3,8.97,89.32,9.5    c0,0.03,0,0.05,0,0.09c0.03,0.43,0.1,0.73,0.18,0.85c0.04,0.05,0.08,0.08,0.13,0.07c0.04-0.01,0.08-0.07,0.1-0.14c0,0,0,0,0-0.01    C89.81,10.17,89.82,9.84,89.78,9.49"/>
		<path class="st3" d="M92.24,11.09c0.25-0.14,0.54-0.31,0.52-0.33c-0.01-0.02-0.33-0.01-0.65,0.05c-0.11,0.02-0.21,0.04-0.31,0.08    c-0.2,0.06-0.41,0.14-0.55,0.21c-0.15,0.08-0.23,0.17-0.2,0.27c0.02,0.07,0.09,0.1,0.19,0.09c0.16-0.01,0.42-0.11,0.71-0.22    C92.02,11.2,92.13,11.15,92.24,11.09"/>
		<path class="st3" d="M91.65,13.45c-0.19-0.24-0.35-0.42-0.48-0.51c-0.06-0.04-0.1-0.07-0.15-0.09c-0.06-0.02-0.11-0.02-0.15,0.02    c-0.03,0.03-0.03,0.09-0.01,0.17c0.01,0.05,0.03,0.1,0.06,0.16c0.08,0.17,0.22,0.38,0.4,0.59c0.03,0.03,0.05,0.06,0.08,0.08    c0.02,0.02,0.04,0.04,0.06,0.06c0.27,0.24,0.5,0.25,0.5,0.25s0-0.2-0.15-0.48c-0.03-0.06-0.07-0.12-0.11-0.18    C91.68,13.49,91.66,13.47,91.65,13.45"/>
		<path class="st5" d="M90.28,11.71c0.09,0.35-0.19,0.73-0.64,0.84c-0.45,0.12-0.88-0.08-0.97-0.42c-0.09-0.35,0.2-0.73,0.64-0.85    C89.76,11.17,90.19,11.36,90.28,11.71"/>
		<path class="st3" d="M64.15,77.16c0.04-0.13,0.05-0.24-0.01-0.31c-0.04-0.05-0.12-0.05-0.2,0c-0.14,0.08-0.3,0.28-0.41,0.59    c-0.02,0.05-0.03,0.09-0.05,0.14c-0.13,0.41-0.13,0.72-0.13,0.72s0.31-0.31,0.5-0.56c0.03-0.04,0.06-0.08,0.08-0.11    C64,77.49,64.1,77.32,64.15,77.16"/>
		<path class="st4" d="M62.45,75.16c-0.22,0.16-0.79,0.66-0.46,1.46c0.39,0.92,1.26,0.97,1.48,0.96c0.02-0.05,0.03-0.09,0.05-0.14    c0.11-0.3,0.28-0.51,0.41-0.59c-0.04-0.27-0.1-0.63-0.19-0.84c-0.11-0.28-0.36-0.64-0.5-0.84C63.11,75.24,62.86,75.27,62.45,75.16    "/>
		<path class="st4" d="M65.09,73.89c-0.09-0.13-0.16-0.42-0.19-0.85c0-0.03,0-0.05,0-0.08c-0.24-0.19-1.09-0.78-1.89-0.12    c-0.83,0.68-0.52,1.54-0.39,1.84c0.16,0.03,0.53,0.09,0.69,0.22c0.19-0.15,0.5-0.39,0.8-0.57C64.41,74.13,64.82,73.98,65.09,73.89    "/>
		<path class="st3" d="M62.55,74.66c-0.54-0.08-0.9,0.05-0.9,0.05s0.12,0.25,0.77,0.44c0,0,0.01,0,0.02,0    c0.41,0.11,0.66,0.08,0.8,0.01c0.09-0.05,0.13-0.12,0.12-0.18c-0.01-0.04-0.03-0.07-0.07-0.09c-0.15-0.12-0.52-0.19-0.69-0.22    C62.59,74.67,62.56,74.67,62.55,74.66"/>
		<path class="st4" d="M66.51,76.64c-0.31-0.01-0.78,0-1.14,0.08c-0.43,0.09-0.96,0.32-1.21,0.44c-0.05,0.16-0.15,0.33-0.23,0.46    c-0.02,0.04-0.05,0.08-0.08,0.11c0.14,0.17,0.72,0.8,1.7,0.68c1.12-0.15,1.4-0.91,1.45-1.1c-0.03-0.03-0.05-0.06-0.07-0.09    C66.73,77.02,66.59,76.81,66.51,76.64"/>
		<path class="st4" d="M67.82,74.54c-0.11,0.06-0.22,0.11-0.29,0.14c-0.29,0.11-0.54,0.21-0.7,0.22c-0.06,0.17-0.13,0.42-0.15,0.7    c-0.02,0.27,0.03,0.58,0.07,0.78c0.13,0.1,0.3,0.27,0.48,0.51c0.02,0.02,0.03,0.05,0.05,0.07c0.05,0.06,0.08,0.12,0.11,0.18    c0.33,0.01,1.06-0.08,1.22-1.12C68.79,74.86,67.98,74.59,67.82,74.54"/>
		<path class="st4" d="M67.69,74.26c0.03-0.14,0.25-1.27-0.77-1.79c-0.71-0.36-1.3,0.01-1.6,0.28c0.01,0.05,0.02,0.12,0.03,0.19    c0.04,0.36,0.03,0.69-0.03,0.87c0.08,0.07,0.39,0.3,0.73,0.46c0.3,0.15,0.68,0.25,0.78,0.28c0.15-0.07,0.34-0.14,0.55-0.21    C67.48,74.31,67.58,74.28,67.69,74.26"/>
		<path class="st3" d="M65.35,72.94c0-0.08-0.02-0.14-0.03-0.19c-0.09-0.38-0.27-0.44-0.27-0.44s-0.18,0.11-0.16,0.64    c0,0.03,0,0.05,0,0.08c0.03,0.43,0.1,0.73,0.19,0.86c0.04,0.05,0.08,0.07,0.13,0.07c0.05,0,0.08-0.07,0.1-0.14c0,0,0.01,0,0.01,0    C65.39,73.63,65.4,73.3,65.35,72.94"/>
		<path class="st3" d="M67.82,74.54c0.26-0.14,0.54-0.31,0.52-0.33c-0.01-0.02-0.32-0.01-0.65,0.05c-0.1,0.02-0.21,0.05-0.31,0.08    c-0.2,0.06-0.4,0.13-0.55,0.21c-0.15,0.08-0.23,0.16-0.2,0.26c0.02,0.07,0.09,0.1,0.19,0.09c0.16-0.01,0.41-0.11,0.7-0.22    C67.6,74.66,67.7,74.6,67.82,74.54"/>
		<path class="st3" d="M67.23,76.9c-0.19-0.24-0.35-0.41-0.48-0.51c-0.05-0.04-0.1-0.08-0.15-0.09c-0.06-0.02-0.11-0.02-0.14,0.01    c-0.04,0.04-0.04,0.1-0.01,0.18c0.01,0.04,0.03,0.1,0.06,0.16c0.08,0.17,0.23,0.38,0.4,0.59c0.03,0.03,0.05,0.06,0.08,0.09    c0.02,0.02,0.04,0.04,0.06,0.05c0.26,0.24,0.5,0.25,0.5,0.25s0-0.19-0.16-0.48c-0.03-0.06-0.07-0.12-0.11-0.18    C67.26,76.94,67.25,76.92,67.23,76.9"/>
		<path class="st5" d="M65.86,75.16c0.09,0.35-0.2,0.73-0.64,0.85c-0.45,0.11-0.88-0.07-0.97-0.43c-0.09-0.35,0.2-0.73,0.64-0.84    C65.33,74.62,65.77,74.81,65.86,75.16"/>
		<path class="st4" d="M42.45,66.53c0.19-0.06,0.3-0.27,0.24-0.46c-0.03-0.1-0.11-0.18-0.2-0.23c-0.13-0.07-0.31-0.09-0.47-0.07    c-0.02,0-0.04,0-0.06,0c-0.63,0.08-0.81,0.55-0.9,0.8c0,0,0.39-0.34,0.94-0.15c0.02,0.01,0.04,0.01,0.07,0.02    C42.2,66.53,42.32,66.58,42.45,66.53"/>
		<path class="st4" d="M42.07,63.69c0.2-0.01,0.36-0.19,0.35-0.39c-0.01-0.11-0.07-0.2-0.15-0.26c-0.02-0.02-0.04-0.03-0.07-0.05    c-0.12-0.07-0.28-0.13-0.43-0.15c-0.64-0.07-0.92,0.34-1.07,0.56c0,0,0.46-0.23,0.96,0.09c0.02,0.01,0.03,0.02,0.05,0.03    C41.84,63.62,41.94,63.7,42.07,63.69"/>
		<path class="st4" d="M44.52,63.15c0.15,0.13,0.39,0.1,0.51-0.05c0.07-0.09,0.09-0.19,0.08-0.29c-0.01-0.06-0.03-0.13-0.06-0.2    c-0.04-0.1-0.1-0.2-0.17-0.28c-0.41-0.49-0.9-0.38-1.16-0.32c0,0,0.53,0.15,0.65,0.78C44.39,62.94,44.41,63.07,44.52,63.15"/>
		<path class="st4" d="M49.88,57.38c-0.01,0.2,0.15,0.37,0.35,0.38c0.11,0,0.21-0.04,0.28-0.12c0.08-0.07,0.14-0.18,0.18-0.29    c0.03-0.06,0.05-0.12,0.06-0.18c0.13-0.62-0.25-0.94-0.46-1.12c0,0,0.2,0.5-0.2,0.97c0,0-0.01,0.01-0.01,0.02    C49.97,57.15,49.88,57.24,49.88,57.38"/>
		<path class="st4" d="M48.22,55.87c0.06,0.19,0.27,0.3,0.46,0.23c0.1-0.03,0.18-0.11,0.22-0.2c0.07-0.13,0.09-0.31,0.07-0.48    c0-0.02,0-0.03,0-0.05c-0.08-0.64-0.55-0.81-0.8-0.9c0,0,0.3,0.35,0.17,0.86c-0.01,0.05-0.02,0.1-0.05,0.15    C48.23,55.62,48.18,55.74,48.22,55.87"/>
		<path class="st4" d="M46.13,57c0.19,0.04,0.39-0.08,0.44-0.27c0.03-0.11,0-0.21-0.06-0.29c-0.04-0.07-0.11-0.14-0.18-0.2    c-0.07-0.05-0.15-0.1-0.23-0.14c-0.59-0.25-0.98,0.06-1.19,0.23c0,0,0.53-0.09,0.91,0.38c0.01,0.01,0.02,0.02,0.02,0.03    C45.92,56.86,46,56.97,46.13,57"/>
		<path class="st4" d="M76.58,71.13c0.17-0.06,0.26-0.25,0.2-0.42c-0.03-0.09-0.1-0.16-0.18-0.19c-0.08-0.04-0.19-0.06-0.3-0.06    c-0.06,0-0.12,0-0.18,0.01c-0.57,0.09-0.71,0.52-0.79,0.75c0,0,0.36-0.32,0.88-0.15c0.01,0,0.01,0,0.03,0.01    C76.36,71.13,76.47,71.17,76.58,71.13"/>
		<path class="st4" d="M76.7,72.21c-0.07-0.07-0.16-0.09-0.26-0.08c-0.08,0-0.16,0.03-0.24,0.06c-0.07,0.03-0.14,0.07-0.2,0.12    c-0.46,0.35-0.39,0.79-0.35,1.03c0,0,0.17-0.47,0.72-0.55h0c0.14-0.01,0.26-0.03,0.34-0.12C76.84,72.54,76.83,72.33,76.7,72.21"/>
		<path class="st4" d="M78.29,73.51c0-0.18-0.15-0.33-0.33-0.33c-0.1,0-0.19,0.05-0.25,0.11c-0.08,0.09-0.13,0.2-0.17,0.32    c-0.01,0.04-0.02,0.08-0.03,0.12c-0.1,0.56,0.26,0.84,0.45,0.99c0,0-0.18-0.42,0.12-0.85c0.01-0.02,0.03-0.04,0.04-0.05    C78.22,73.71,78.29,73.62,78.29,73.51"/>
		<path class="st4" d="M68.98,70.55c0-0.18-0.15-0.33-0.33-0.32c-0.1,0-0.19,0.05-0.25,0.11c-0.06,0.06-0.1,0.13-0.14,0.22    c-0.03,0.07-0.05,0.14-0.06,0.22c-0.1,0.57,0.26,0.84,0.45,0.99c0,0-0.16-0.39,0.08-0.79c0.02-0.04,0.05-0.08,0.08-0.11    C68.9,70.76,68.98,70.67,68.98,70.55"/>
		<path class="st4" d="M67.56,69.21c0.14-0.12,0.16-0.32,0.04-0.46c-0.06-0.08-0.15-0.11-0.24-0.12c-0.11-0.01-0.24,0.02-0.36,0.07    c-0.04,0.01-0.07,0.03-0.1,0.05c-0.5,0.28-0.49,0.73-0.48,0.97c0,0,0.18-0.35,0.62-0.43c0.06-0.01,0.11-0.02,0.18-0.02    C67.36,69.29,67.47,69.29,67.56,69.21"/>
		<path class="st4" d="M67.94,67.53c0.18,0,0.33-0.14,0.34-0.32c0.01-0.1-0.04-0.19-0.1-0.25c-0.06-0.06-0.15-0.12-0.25-0.16    c-0.06-0.02-0.12-0.04-0.17-0.06c-0.56-0.12-0.85,0.22-1.01,0.4c0,0,0.41-0.16,0.81,0.14c0.02,0.02,0.05,0.04,0.08,0.07    C67.73,67.44,67.82,67.52,67.94,67.53"/>
		<path class="st4" d="M54.81,66.28c1.07,0.27,1.09-0.84,1.1-1.04c0.07-1.13,0.85-1.22,0.98-1.35c-0.36,0.07-1.1,0.05-1.33-0.38    c-0.25,0.14-0.67,0.21-1.16,0c0.14,0.15,0.24,0.37,0.28,0.46c0.1,0.28,0.01,0.61-0.1,0.87C54.47,65.1,53.84,66.03,54.81,66.28"/>
		<path class="st4" d="M68.71,47.55c0.2,0,0.36-0.16,0.36-0.36c0-0.11-0.05-0.21-0.12-0.27c-0.07-0.07-0.17-0.12-0.27-0.16    c-0.07-0.03-0.14-0.05-0.2-0.06c-0.62-0.11-0.93,0.28-1.09,0.49c0,0,0.43-0.18,0.87,0.1c0.04,0.03,0.07,0.06,0.11,0.08    C68.48,47.47,68.58,47.55,68.71,47.55"/>
		<path class="st4" d="M67.9,49.72c0.14-0.14,0.15-0.37,0.01-0.51c-0.07-0.08-0.18-0.11-0.28-0.1c-0.1,0-0.22,0.03-0.32,0.08    c-0.06,0.03-0.12,0.06-0.17,0.09c-0.52,0.35-0.47,0.84-0.44,1.11c0,0,0.19-0.46,0.75-0.55c0.03,0,0.06-0.01,0.08-0.01    C67.68,49.83,67.8,49.82,67.9,49.72"/>
		<path class="st4" d="M69.55,51.39c0.04-0.2-0.09-0.39-0.29-0.42c-0.11-0.02-0.21,0.01-0.29,0.08c-0.07,0.05-0.14,0.12-0.19,0.21    c-0.05,0.07-0.09,0.15-0.12,0.22c-0.22,0.59,0.11,0.96,0.28,1.16c0,0-0.11-0.48,0.28-0.86c0.02-0.02,0.05-0.05,0.08-0.07    C69.43,51.6,69.53,51.52,69.55,51.39"/>
		<path class="st4" d="M53.05,44.47c1.19,0.41,1.31-0.85,1.35-1.09c0.18-1.28,1.08-1.31,1.24-1.44c-0.42,0.05-1.25-0.05-1.48-0.55    c-0.29,0.13-0.78,0.18-1.32-0.11c0.15,0.18,0.24,0.44,0.27,0.55c0.09,0.33-0.04,0.7-0.19,0.99    C52.77,43.09,51.97,44.09,53.05,44.47"/>
		<path class="st4" d="M38.13,43.38c0.14-0.16,0.12-0.4-0.04-0.54c-0.09-0.08-0.2-0.1-0.3-0.09c-0.1,0.01-0.2,0.05-0.3,0.1    c-0.07,0.03-0.15,0.08-0.21,0.13c-0.53,0.42-0.43,0.94-0.37,1.22c0,0,0.17-0.51,0.77-0.64c0.02-0.01,0.05-0.01,0.07-0.02    C37.9,43.51,38.03,43.49,38.13,43.38"/>
		<path class="st4" d="M38.44,40.2c0.23,0,0.41-0.18,0.41-0.41c0-0.13-0.05-0.24-0.14-0.32c-0.08-0.08-0.19-0.14-0.3-0.18    c-0.08-0.03-0.16-0.06-0.24-0.08c-0.71-0.13-1.07,0.32-1.25,0.56c0,0,0.46-0.19,0.95,0.09c0.06,0.03,0.12,0.08,0.18,0.13    C38.18,40.11,38.29,40.2,38.44,40.2"/>
		<path class="st4" d="M41.3,39.35c0.2,0.08,0.42-0.03,0.5-0.23c0.04-0.11,0.03-0.22-0.02-0.32c-0.03-0.06-0.07-0.12-0.12-0.17    c-0.08-0.09-0.17-0.17-0.28-0.23c-0.58-0.35-1.03-0.07-1.28,0.07c0,0,0.5-0.02,0.83,0.43c0.03,0.04,0.06,0.08,0.09,0.13    C41.1,39.18,41.17,39.3,41.3,39.35"/>
		<path class="st4" d="M40.36,50.75c0.1-0.18,0.03-0.4-0.15-0.5c-0.09-0.05-0.2-0.05-0.3-0.02c-0.1,0.03-0.21,0.1-0.3,0.18    c-0.05,0.04-0.09,0.09-0.13,0.13c-0.4,0.5-0.21,0.96-0.1,1.2c0,0,0.05-0.48,0.54-0.74c0.03-0.02,0.07-0.03,0.11-0.05    C40.17,50.91,40.29,50.86,40.36,50.75"/>
		<path class="st4" d="M40.45,46.9c0.23,0,0.41-0.18,0.41-0.41c0-0.12-0.05-0.23-0.14-0.31c-0.04-0.04-0.09-0.07-0.14-0.1    c-0.12-0.08-0.27-0.13-0.41-0.16c-0.71-0.13-1.06,0.32-1.25,0.56c0,0,0.52-0.22,1.04,0.14c0.03,0.02,0.06,0.05,0.1,0.07    C40.19,46.81,40.3,46.9,40.45,46.9"/>
		<path class="st4" d="M39.14,48.76c0.21-0.1,0.3-0.34,0.2-0.55c-0.06-0.11-0.15-0.19-0.26-0.22c-0.13-0.05-0.29-0.05-0.44-0.03    c-0.05,0.01-0.11,0.02-0.16,0.03c-0.7,0.19-0.83,0.74-0.89,1.04c0,0,0.36-0.4,0.96-0.32c0.05,0.01,0.1,0.01,0.15,0.03    C38.87,48.79,39,48.82,39.14,48.76"/>
		<path class="st4" d="M84.62,49.51c0.17-0.1,0.22-0.33,0.12-0.5c-0.06-0.09-0.15-0.15-0.25-0.16c-0.1-0.02-0.22-0.01-0.33,0.01    c-0.07,0.01-0.13,0.03-0.19,0.05c-0.59,0.23-0.65,0.72-0.67,0.98c0,0,0.3-0.42,0.89-0.36c0.02,0,0.03,0,0.05,0    C84.38,49.56,84.51,49.57,84.62,49.51"/>
		<path class="st4" d="M84.87,51.24c0.09-0.18,0.02-0.4-0.15-0.49c-0.1-0.05-0.21-0.06-0.3-0.02c-0.07,0.02-0.15,0.07-0.21,0.12    c-0.08,0.06-0.15,0.13-0.2,0.2c-0.39,0.5-0.19,0.95-0.08,1.19c0,0,0.04-0.52,0.58-0.76c0.01-0.01,0.03-0.01,0.04-0.02    C84.69,51.4,84.8,51.35,84.87,51.24"/>
		<path class="st4" d="M86.6,52.37c-0.03-0.2-0.21-0.33-0.41-0.31c-0.11,0.02-0.2,0.08-0.25,0.16c-0.06,0.09-0.11,0.21-0.13,0.33    c-0.01,0.06-0.02,0.11-0.02,0.17c-0.03,0.63,0.4,0.88,0.63,1.01c0,0-0.26-0.44,0.02-0.95c0.01-0.02,0.02-0.03,0.03-0.05    C86.56,52.61,86.62,52.5,86.6,52.37"/>
		<path class="st4" d="M38.19,18.06c0.22,0.05,0.45-0.08,0.5-0.3c0.03-0.12,0-0.24-0.07-0.34c-0.03-0.04-0.06-0.08-0.09-0.12    c-0.1-0.11-0.24-0.2-0.38-0.26c-0.66-0.3-1.11,0.06-1.35,0.24c0,0,0.62-0.1,1.05,0.48c0.01,0.01,0.01,0.01,0.01,0.02    C37.97,17.91,38.05,18.02,38.19,18.06"/>
		<path class="st4" d="M68.82,25.51c0.2,0.01,0.37-0.13,0.39-0.33c0.01-0.11-0.03-0.21-0.1-0.28c-0.01-0.02-0.03-0.03-0.05-0.05    c-0.11-0.1-0.26-0.17-0.4-0.21c-0.61-0.16-0.95,0.2-1.12,0.4c0,0,0.42-0.14,0.83,0.15c0.05,0.03,0.09,0.07,0.14,0.12    C68.6,25.41,68.69,25.5,68.82,25.51"/>
		<path class="st4" d="M66.94,27.68c0.15,0.04,0.27,0.06,0.38,0c0.18-0.1,0.24-0.32,0.15-0.49c-0.05-0.09-0.15-0.15-0.24-0.18    c-0.16-0.04-0.36-0.02-0.52,0.04c-0.6,0.2-0.68,0.69-0.72,0.95c0,0,0.25-0.32,0.72-0.33C66.77,27.66,66.85,27.66,66.94,27.68"/>
		<path class="st4" d="M69,29.39c-0.04-0.2-0.22-0.33-0.42-0.29c-0.1,0.02-0.19,0.08-0.24,0.17c-0.04,0.05-0.06,0.11-0.08,0.18    c-0.04,0.11-0.05,0.22-0.05,0.33c0,0.63,0.44,0.86,0.67,0.98c0,0-0.21-0.32-0.1-0.74c0.02-0.08,0.06-0.17,0.11-0.27    C68.96,29.63,69.03,29.52,69,29.39"/>
		<path class="st4" d="M52.81,23.16c1.2,0.39,1.3-0.87,1.33-1.1c0.16-1.28,1.06-1.33,1.22-1.46c-0.42,0.05-1.25-0.03-1.49-0.53    c-0.29,0.14-0.77,0.19-1.32-0.08c0.15,0.18,0.25,0.43,0.28,0.54c0.1,0.33-0.03,0.7-0.18,0.99C52.5,21.78,51.72,22.8,52.81,23.16"/>
		<path class="st4" d="M38.08,21.31c0.14-0.16,0.13-0.4-0.03-0.54c-0.09-0.07-0.2-0.1-0.31-0.09c-0.14,0.01-0.3,0.08-0.44,0.17    c-0.03,0.02-0.05,0.03-0.07,0.05c-0.53,0.42-0.43,0.94-0.38,1.22c0,0,0.15-0.46,0.68-0.62c0.05-0.01,0.11-0.03,0.16-0.04    C37.85,21.44,37.99,21.42,38.08,21.31"/>
		<path class="st4" d="M41.24,17.09c0.19,0.11,0.42,0.04,0.53-0.14c0.06-0.1,0.07-0.21,0.03-0.32c-0.01-0.03-0.02-0.06-0.04-0.09    c-0.06-0.14-0.17-0.27-0.28-0.37c-0.52-0.44-1.01-0.24-1.28-0.14c0,0,0.54,0.07,0.79,0.63c0.01,0.02,0.02,0.05,0.03,0.07    C41.07,16.89,41.11,17.02,41.24,17.09"/>
		<path class="st4" d="M40.36,24.65c0.19,0.11,0.42,0.04,0.53-0.14c0.06-0.1,0.07-0.21,0.03-0.32c-0.02-0.09-0.07-0.18-0.14-0.26    c-0.06-0.08-0.12-0.15-0.19-0.2c-0.52-0.44-1.01-0.24-1.28-0.14c0,0,0.59,0.07,0.82,0.71c0.01,0.02,0.01,0.05,0.02,0.07    C40.21,24.48,40.26,24.59,40.36,24.65"/>
		<path class="st4" d="M38.69,26.65c0.21-0.08,0.32-0.32,0.25-0.53c-0.04-0.12-0.13-0.2-0.24-0.24c-0.15-0.07-0.33-0.08-0.51-0.06    c-0.03,0-0.06,0.01-0.09,0.01c-0.71,0.12-0.89,0.66-0.99,0.95c0,0,0.37-0.34,0.93-0.24c0.07,0.01,0.14,0.03,0.21,0.06    C38.41,26.65,38.55,26.71,38.69,26.65"/>
		<path class="st4" d="M40.35,28.43c-0.1-0.08-0.22-0.1-0.33-0.08c-0.14,0.02-0.28,0.09-0.41,0.18c-0.05,0.03-0.09,0.07-0.13,0.1    c-0.54,0.49-0.4,1.04-0.32,1.33c0,0,0.15-0.61,0.86-0.77c0.01,0,0.01,0,0.01,0c0.16-0.03,0.3-0.06,0.39-0.18    C40.57,28.83,40.53,28.57,40.35,28.43"/>
		<path class="st6" d="M31.21,3.78v43.5c0,8.89,2.78,16.57,8.27,22.81c5.75,6.55,14.38,11.41,25.67,14.45    c11.29-3.04,19.92-7.9,25.67-14.45c5.49-6.24,8.27-13.92,8.27-22.81V3.78H31.21z M97.38,47.28c0,17.36-11.21,29.63-32.23,35.44    C44.13,76.9,32.99,64.64,32.99,47.28V5.52h64.39V47.28z"/>
		<path class="st6" d="M85.8,61.09c0,0,0.95-1.34-2.38-2.68c-2.47-1-5.86-0.79-8.02-1.09c-1.81-0.25-2.01-0.66-1.91-1.11    c0.22-1,1.9-0.34,2.96,0.23c1.15,0.61,3.18,0.82,4.66-0.56c0.53-0.49,1.27-0.67,1.27-0.67s-0.88-0.56-1.6-0.06    c-0.3,0.2-0.53,0.41-1.14,0.46c-1.06,0.08-1.26-0.26-1.26-0.26s0.54,0.36,1.87-0.32c1.73-0.88,0.69-2.81,0.69-2.81    s0.12,0.69-0.61,1.17c-1.02,0.67-1.87,0.06-1.87,0.06s0.39,0.2,1-0.03c0.76-0.29,1-0.68,0.75-1.2c-0.11-0.22-0.46-0.48-0.46-0.48    s0.83,1.09-2.45,0.87c-1.66-0.12-2.23,1.56-2.23,1.56s-0.76-0.19-1.29-0.01c0.03-0.25,0-0.69-0.14-0.95    c-0.17,0.86-0.83,1.41-1.14,1.78c-0.3,0.37-0.96,1.33-0.14,2.46c0.82,0.95,2.3,1.09,3.24,1.17c1.4,0.1,3.71,0.23,5.75,0.51    c2.76,0.38,2.28,1.7,1.94,2.11c-0.35,0.42-1.01,0.45-2.92-0.22c-1.91-0.67-3.92-1.86-7.92-1.71c-5.52,0.21-9.45,4.25-11.47,4.03    c0,0,0.11,0.48,0.07,0.81c-0.18,1.4-1.45,2.16-1.45,2.16s-0.07-0.29-0.18-0.27c-0.13,0.02-0.01,0.31-0.46,0.64    c-0.43,0.32-0.65,0.68-0.81,1.33c0,0-0.23-0.45-0.36-0.05c-0.18,0.52-0.45,0.54-0.59,0.6c0,0-0.01-0.26-0.13-0.26    c-0.17,0.01-0.25,1.12-2.18,0.94l-0.14,0.04c-1.41,0.24-1.66-1.15-2.16-1.64c-0.33-0.31-0.73,0.26-0.73,0.26s-0.27-0.29-0.24-0.83    c0.04-0.57,0.14-0.76-0.08-1.15c-0.17-0.29-0.91-0.92-0.64-1.98c-0.33-0.01-1.01-0.25-1.28-2.23c-0.02-0.14,0.24,0.03,0.24,0.03    c-0.05-0.3-0.31-0.41-0.37-0.76c-0.07-0.51-0.14-1.5,0.14-1.85c0.43-0.53,1.6-0.71,1.04-1.76c-0.04,0.11-0.1,0.22-0.18,0.29    c-0.07,0.07-0.17,0.12-0.28,0.12c-0.2-0.01-0.36-0.18-0.35-0.38c0-0.13,0.09-0.23,0.2-0.34c0-0.01,0.01-0.01,0.01-0.02    c-0.21-0.02-0.39,0.05-0.5,0.1c0.03-0.23,0.41-1.42-0.6-1.69c0.01,0.16,0,0.34-0.07,0.48c-0.04,0.09-0.12,0.17-0.22,0.2    c-0.2,0.07-0.4-0.04-0.46-0.23c-0.04-0.13,0.01-0.25,0.07-0.39c0.02-0.06,0.03-0.1,0.05-0.15c-0.98,0.12-0.78,1.39-0.77,1.59    c-0.02-0.29-0.62-1.1-1.19-0.73c-0.01,0-0.03,0.02-0.06,0.05c0.07,0.06,0.14,0.12,0.18,0.19c0.06,0.08,0.09,0.19,0.06,0.3    c-0.04,0.19-0.24,0.32-0.44,0.27c-0.13-0.03-0.21-0.14-0.3-0.26c-0.01-0.01-0.02-0.02-0.02-0.03c-0.21,0.27-0.17,0.74,0.37,1.16    c0.82,0.62,1.09,3.11,0.96,3.44c-0.17,0.44-0.6-0.19-0.6-0.19s-0.08,0.57,0.34,1.16c0.73,1.04,0.94,1.49,0.4,1.32    c-0.16-0.06-0.34-0.22-0.34-0.22s0.03,0.52,0.69,1.06c0.26,0.21,0.23,0.33,0.04,0.31c-0.22-0.03-0.39-0.17-0.39-0.17    s0.18,0.47,0.52,0.92c0.56,0.75,1.07,1.07,1.07,1.07s-0.63-0.06-1.54-0.58c-1.36-0.79-0.79-1.35-1.2-2.29    c-0.39-0.9-0.64-1.04-1.04-1.09h-0.04c0.03,0.07,0.05,0.13,0.05,0.2c0.01,0.1-0.01,0.2-0.08,0.29c-0.13,0.16-0.36,0.18-0.51,0.05    c-0.1-0.09-0.13-0.22-0.15-0.36c-0.38,0.2-0.37,0.61-0.34,0.79c-0.26-0.29-0.75-0.69-1.1-0.75c-0.21-0.04-0.46,0.02-0.69,0.14    c-0.01,0-0.02,0.01-0.03,0.01c0.02,0.02,0.05,0.03,0.07,0.05c0.08,0.06,0.14,0.15,0.15,0.26c0.01,0.2-0.15,0.38-0.35,0.39    c-0.13,0.01-0.23-0.07-0.35-0.17c-0.02-0.01-0.03-0.02-0.05-0.03c-0.24,0.43-0.17,1.24,1.24,1.69c0,0-0.67,0.1-0.89,0.6    c0.16-0.01,0.34,0.01,0.47,0.07c0.09,0.04,0.17,0.12,0.2,0.23c0.06,0.19-0.05,0.4-0.24,0.46c-0.13,0.04-0.25-0.01-0.39-0.07    c-0.02-0.01-0.04-0.02-0.06-0.02c0.16,0.71,0.74,0.81,1.22,0.81c2.09-0.03,3.72,0.98,3.72,0.98s-0.45,0.03-0.71,0.35    c-0.26,0.34-0.2,0.53-0.2,0.53s0.18-0.17,0.71-0.26c0.56-0.1,0.66,0.11,0.66,0.11s-0.81,0.3-0.5,1.14c0,0,0.33-0.36,0.83-0.53    c0.42-0.14,0.9-0.11,1.09,0.16c0.26,0.38-0.85,0.75-0.85,0.75c0.78,0.47,2.49,0.24,2.49,0.24s-1.19,0.22-1.19,0.99    c0,0,0.74-0.57,2.2,0c2.21,0.85,4.91,1.26,8.44-0.17c4.45-1.81,4.58-5.66,10.77-7.7c0.2,0.3,1.59,1.6,3.34,2.25    c1.4,0.52,3.39,0.88,3.99,1.02c0.87,0.21,2.42,0.54,1.49,2.23c-0.44,0.79-0.84,1.02-1.22,1.3c-0.07-0.01-0.53-0.14-1.19-0.38    c-0.39-0.14-0.67-0.05-0.79,0.21c0.1,0,0.21,0.01,0.3,0.06c0.08,0.03,0.15,0.1,0.18,0.19c0.06,0.17-0.03,0.36-0.2,0.42    c-0.11,0.04-0.22,0-0.34-0.05c-0.01,0-0.02,0-0.03-0.01c0.05,0.47,0.44,0.52,0.44,0.52s-0.46,0.17-0.45,0.6    c0.08-0.03,0.16-0.06,0.24-0.06c0.09-0.01,0.19,0.02,0.26,0.08c0.13,0.12,0.14,0.33,0.02,0.46c-0.08,0.09-0.19,0.1-0.34,0.12    c0.01,0.01,0.02,0.02,0.04,0.03c0.27,0.34,1.06,0.08,1.06,0.08s-0.18,0.41,0.06,0.7c0.04-0.11,0.09-0.23,0.17-0.32    c0.06-0.06,0.15-0.11,0.25-0.11c0.18,0,0.33,0.15,0.33,0.33c0,0.12-0.07,0.21-0.16,0.31c-0.01,0.02-0.03,0.04-0.04,0.06    c0.05,0.01,0.09,0.02,0.14,0.01c0.38-0.06,0.93-0.4,1.19-1.23c0.31-0.95,0.62-1.16,0.62-1.16s0.8-0.76,0.5,0.59    c0.79-0.21,0.69-1.08,0.69-1.08s0.64,0.29,0.83,0.14c0.27-0.21,0.01-0.84,0.31-1.28c0.34-0.49,0.54,0.08,0.41,0.48    c0,0,0.49-0.15,0.51-0.78c0.02-0.41-0.14-0.88,0.24-1.23c0.29-0.24,0.36,0.11,0.28,0.44c0,0,0.38,0.02,0.44-0.64    c0.04-0.4-0.06-0.53,0.06-0.58c0.14-0.06,0.25,0.33,0.25,0.33s0.34-0.76-0.36-1.21c-1.16-0.76-4.12-0.24-5.89-3.02    c-0.64-1.02-0.17-1.49-0.17-1.49s3.15,1.48,4.85,1.24c2.05-0.3,2.06-1.4,2.06-1.4s0.33,0.06,0.04,0.73c0,0,0.37-0.08,0.53-0.59    c0.3-0.99-0.32-1.6-0.32-1.6C85.79,60.49,85.8,61.09,85.8,61.09"/>
		<path class="st6" d="M76.77,67.43c-3.59-0.69-4.34-1.14-5.79-2.54c-0.15,0.07-0.72,1.09,0.81,2.54c0.6,0.57,1.18,0.74,1.18,0.74    s-1.05-0.18-2.41-0.05c-0.64-0.18-1.1-0.99-1.94-1.31c-0.28-0.11-0.51-0.11-0.7-0.01c0.1,0.04,0.19,0.1,0.25,0.16    c0.07,0.06,0.11,0.15,0.1,0.25c-0.01,0.18-0.16,0.32-0.34,0.32c-0.12-0.01-0.21-0.08-0.31-0.18c-0.03-0.02-0.05-0.05-0.07-0.07    c-0.05,0.23,0.02,0.5,0.31,0.79c-0.39-0.01-0.76,0.19-0.86,0.63c0.12-0.05,0.25-0.08,0.36-0.07c0.09,0,0.18,0.04,0.24,0.12    c0.12,0.14,0.1,0.35-0.04,0.46c-0.09,0.08-0.21,0.08-0.35,0.07c-0.07,0-0.12,0.01-0.18,0.02c0.01,0.02,0.01,0.04,0.03,0.05    c0.27,0.79,1.48,0.21,1.48,0.21s-0.62,0.45-0.28,1c0.04-0.09,0.08-0.16,0.14-0.22c0.06-0.07,0.15-0.11,0.25-0.11    c0.18,0,0.33,0.14,0.33,0.32c0,0.12-0.07,0.21-0.17,0.31c-0.03,0.03-0.06,0.08-0.08,0.11c0.85,0.32,1.53-0.96,1.53-1    c-0.03,0.93,0.71,1.15,0.71,1.15s-0.11-0.4,0.28-0.66c0.43-0.29,1.08-0.21,1.13-0.22c-0.12,0.47,0.06,0.69,0.32,0.77    c0.06-0.99,1.92-1.02,1.92-1.02c0.1,0.38,0.52,0.52,0.52,0.52s-0.02-0.54,0.38-0.84c0.4-0.31,1.07-0.32,1.77-0.72    C78.12,68.49,77.95,67.59,76.77,67.43"/>
		<path class="st6" d="M61.28,60.46c0.16-1.29-0.74-1.2-0.74-1.2s0.35-0.25,0.47-0.71c0.21-0.8-0.26-1.85-0.26-1.85    s-0.49,0.87-1.07,0.26c0,0,0.33-0.35,0.27-1.12c-0.06,0.22-1.86,1.59-2.37-0.86c-1.02,0.23-0.93,1.22-1.56,1.14    c-0.34-0.04-0.67-0.31-0.42-0.95c0,0-0.92,0.05-1.06,1.01c-0.17,1.19-0.75-0.4-1.53-0.34c-0.01,0-0.58,0.62-0.55,1.95    c-0.71,0.03-1.03,0.59-1.1,1.47c-0.2,2.52-0.87,1.69-0.86,1.74c0.22,1.55,1.09,0.73,1.09,0.73c-0.15,1.08-1.13,0.49-1.13,0.49    c0.29,1.66,0.98,1.11,0.98,1.11c-0.32,1.38,0.21,1.74,0.4,2.01c0.24,0.33,0.35,0.47,0.26,1.07c-0.08,0.53-0.05,0.72-0.05,0.72    s0.42-0.42,0.72-0.11c0.46,0.49,0.74,1.96,1.79,1.77c0,0-0.13-0.64,0.1-0.64c0.21,0,0.29,0.56,0.29,0.56    c0.29,0.03,1.09,0.15,1.53-0.41c0.26-0.34,0.33-0.82,0.61-0.8c0.21,0.02,0.23,0.42,0.23,0.42c0.19-0.11,0.22-0.22,0.31-0.68    c0.1-0.57,0.39,0.03,0.39,0.03c0.07-0.41,0.29-0.79,0.69-1.05c0.5-0.32,0.36-1.18,0.65-1.4c0.32-0.23,0.39,0.69,0.39,0.69    s1.09-0.84,0.71-2.28c-0.17-0.64-0.35-1.19-0.15-1.25c0.19-0.05,0.16,0.58,0.58,0.83c0.3,0.18,0.77-0.07,0.77-0.07    C61.12,62.14,61.21,61.09,61.28,60.46 M53.68,59.52v-0.06v-0.05l0.04,0.03l0.69,0.29c-0.05,0.04-0.09,0.09-0.12,0.14    c-0.1,0.21-0.03,0.46,0.18,0.57c0.2,0.1,0.45,0.02,0.56-0.18c0.04-0.08,0.05-0.17,0.03-0.26h0c0,0,0.47,0.18,0.42,0.74    c-0.04,0.44-0.31,0.95-0.31,0.95s-0.23-0.1-0.11-0.48c0.14-0.47,0.07-0.48,0.07-0.48s-0.48,0.1-0.84-0.08l-0.04-0.02    C53.7,60.3,53.67,59.6,53.68,59.52 M56.62,64.36c-0.5,0.43-0.41,1.09-0.52,1.54c-0.14,0.54-0.63,0.81-1.18,0.7    c-0.47-0.08-0.92-0.36-0.96-0.86c-0.04-0.57,0.9-1.32,0.3-2.03c-0.49-0.59-0.46-0.86-0.46-0.86s0.13,0.19,0.45,0.35    c0.11,0.06,1.08,0.51,1.27-0.23c0.05-0.19-0.1-0.3-0.22-0.38c-0.07-0.05-0.17-0.1-0.23-0.16c-0.15-0.17-0.03-0.37-0.03-0.37    s0.26,0.35,0.73,0.42c0.48,0.08,0.89-0.13,0.89-0.13s0.11,0.33-0.28,0.39c-0.21,0.03-0.51,0.04-0.55,0.3    c-0.12,0.86,1.12,0.67,1.49,0.62c0.3-0.05,0.44-0.09,0.44-0.09C57.53,63.9,57.08,63.96,56.62,64.36 M58.91,60.47l-0.02,0.05    c-0.03,0.08-0.32,0.71-0.96,0.79l-0.04,0.01c-0.41,0.03-0.81-0.25-0.81-0.25s-0.07-0.02-0.12,0.47c-0.04,0.4-0.28,0.41-0.28,0.41    s-0.06-0.58,0.08-1c0.17-0.53,0.67-0.52,0.67-0.52h0.01c-0.05,0.07-0.08,0.16-0.07,0.26c0.02,0.23,0.22,0.4,0.45,0.38    c0.23-0.02,0.4-0.22,0.38-0.45c0-0.06-0.03-0.13-0.06-0.18h0.75l0.05-0.01L58.91,60.47z"/>
		<path class="st6" d="M83.01,47.42c-8.61-0.29-10.79-2.74-10.79-2.74s-0.99,1.64,2.96,3.36c0,0-1.34-0.22-2.08-0.25    c-0.88-0.04-1.82,0.13-1.82,0.13s-1-0.91-1.69-1.16c-0.23-0.08-0.59-0.19-0.92,0.01c0.1,0.04,0.2,0.09,0.27,0.16    c0.08,0.07,0.13,0.16,0.13,0.27c0,0.2-0.16,0.36-0.36,0.36c-0.13,0-0.23-0.08-0.34-0.18c-0.04-0.03-0.08-0.05-0.11-0.08    c-0.18,0.47,0.13,0.8,0.34,0.93c-1,0.22-1.29,0.47-1.3,0.98c0.1-0.05,0.22-0.08,0.32-0.08c0.1-0.01,0.2,0.03,0.28,0.1    c0.14,0.14,0.14,0.37-0.01,0.51c-0.09,0.09-0.22,0.1-0.37,0.11c-0.03,0-0.06,0.01-0.08,0.01c0.21,0.36,0.66,0.54,1.29,0.33    c0.29-0.1,0.36-0.15,0.36-0.15s-0.54,0.62-0.31,1.21c0.05-0.08,0.12-0.15,0.19-0.21c0.07-0.06,0.18-0.1,0.29-0.07    c0.2,0.04,0.33,0.22,0.29,0.42c-0.02,0.13-0.12,0.21-0.24,0.3c-0.03,0.02-0.05,0.05-0.08,0.07c0.07,0.03,0.15,0.06,0.26,0.09    c0.55,0.15,1.01-0.31,1.39-0.77c0.76-0.92,1.5-0.64,1.5-0.64c-0.51,0.5-0.03,1.11-0.03,1.11s0.41-0.97,1.09-0.7    c-0.13,0.59,0.46,0.93,0.46,0.93s0.36-0.95,0.81-0.95c0.61,0,0.3,0.92,0.3,0.92s0.33-0.04,0.85-0.56    c0.34-0.34,0.64-0.72,1.34-0.67c-0.02,0.11,0.09,0.77,0.71,1.07c-0.02-2.28,3.2-2.58,3.73-2.69    C83.17,48.6,83.01,47.42,83.01,47.42"/>
		<path class="st6" d="M61.04,36.73c0.36-0.88-0.08-2.48-0.08-2.48s-0.72,1.14-1.33,0.53c-0.56-0.57,0.04-1.47,0.04-1.47    c-0.69-0.23-1.27,0.72-2.13,0.26c-0.6-0.33,0.1-1.42,0.1-1.42s-0.78-0.03-1.4,0.28c-0.61,0.3-0.87,0.54-1.29,0.53    c-0.58-0.02-0.38-0.97-0.38-0.97s-0.68-0.02-1.08,0.69c-0.41,0.7-0.85,0.88-0.85,0.88c-0.19-0.3-0.6-0.3-0.91-0.39    c-0.35-0.1-0.58-0.26-0.58-0.26s-0.64,1.23-0.34,2.24c-0.48,0.13-0.61,0.67-0.69,0.93c-0.56,2.02-1.39,1.12-1.38,1.18    c0.16,1.79,1.19,1.73,1.1,2.15c-0.12,0.56-1.08-0.21-1.08-0.21c0.03,1.26,0.59,1.34,0.82,2.09c0.2,0.65-0.21,1.08,0.12,2.08    c0.34,1.03,0.09,1.41,0.09,1.41c0.7,0.02,1.16-0.49,1.16-0.49c-0.14,1.32,0.48,1.95,0.48,1.95s0.39-0.81,0.55-0.27    c0.44,1.43,1.16,1.95,1.16,1.95s0.65-0.02,1.8-1.24c0.8-0.84,0.44,0.25,0.44,0.25s0.56,0.05,1.73-2.08    c0.38-0.69,1.01-1.09,1.23,0.03c1.33-1.44,0.87-2.99,0.87-3.54c0-0.49,0.24-0.54,0.26-0.32c0.14,1.33,1.53,0.88,1.53,0.88    s-0.57-0.58,0.01-2.6c0.29-1.01-0.27-1.99-0.27-1.99S60.97,36.9,61.04,36.73 M52.37,36.67l0.01-0.06l0.01-0.06l0.05,0.03    l0.76,0.39c-0.06,0.04-0.11,0.09-0.15,0.15c-0.14,0.22-0.08,0.52,0.15,0.66c0.22,0.14,0.52,0.07,0.65-0.16    c0.06-0.09,0.07-0.2,0.06-0.3l0.01,0c0,0,0.51,0.25,0.41,0.88c-0.08,0.5-0.45,1.06-0.45,1.06s-0.24-0.14-0.07-0.56    c0.2-0.52,0.11-0.54,0.11-0.54s-0.55,0.07-0.95-0.18l-0.04-0.03C52.33,37.56,52.36,36.76,52.37,36.67 M55.28,42.44    c-0.62,0.45-0.57,1.19-0.74,1.7c-0.2,0.61-0.79,0.87-1.4,0.69c-0.53-0.13-1.02-0.49-1.01-1.06c0-0.65,1.15-1.42,0.53-2.29    c-0.51-0.71-0.45-1.02-0.45-1.02s0.14,0.22,0.49,0.44c0.12,0.07,1.18,0.68,1.46-0.15c0.07-0.21-0.08-0.34-0.21-0.46    c-0.07-0.06-0.18-0.13-0.24-0.21c-0.15-0.21,0-0.42,0-0.42s0.27,0.42,0.79,0.55c0.54,0.14,1.02-0.07,1.02-0.07s0.1,0.39-0.35,0.42    c-0.24,0.01-0.59,0-0.66,0.28c-0.22,0.97,1.21,0.87,1.65,0.84c0.35-0.03,0.51-0.06,0.51-0.06C56.35,42.01,55.84,42.04,55.28,42.44     M58.25,38.24l-0.03,0.05c-0.04,0.09-0.43,0.79-1.16,0.81l-0.05,0c-0.47,0-0.9-0.35-0.9-0.35s-0.07-0.03-0.18,0.52    c-0.08,0.45-0.36,0.44-0.36,0.44s-0.02-0.67,0.18-1.14c0.25-0.59,0.82-0.53,0.82-0.53l0,0c-0.06,0.08-0.11,0.17-0.11,0.28    c0,0.26,0.22,0.48,0.48,0.48c0.27,0,0.48-0.21,0.48-0.48c0-0.07-0.02-0.15-0.06-0.21l0.85,0.06h0.06L58.25,38.24z"/>
		<path class="st6" d="M93.21,46.47c0,0,0.08-1.23-0.81-1.55c-1.16-0.42-2.67,0.13-5.67-0.15c-7.27-0.68-6.37-3.31-6.37-3.31    s4.57,2.03,6.5,1.08c1.07-0.52,1-1.45,1-1.45c0.3,0.35-0.02,1.05-0.02,1.05s1.87-1.38-0.36-3.53c-0.81-0.77-2.28-1.35-3.4-1.49    c-3.19-0.42-4.42-0.24-6.67-0.55c-1.89-0.26-2.31-0.93-2.21-1.46c0.29-1.56,3.8,0.66,5.73-0.2c0.52-0.23,0.94-0.59,1.39-0.7    c0.47-0.11,0.94,0.04,0.94,0.04s-0.45-0.82-1.95-0.5c-1.23,0.26-1.32-0.15-1.32-0.15s0.57,0.05,1.32-0.39    c0.48-0.28,0.61-0.89,1.13-1.11c0.64-0.28,1.29-0.02,1.29-0.02s-0.84-1.43-2.45-0.59c-1.1,0.71-1.49,0.19-1.49,0.19    s0.85,0,1.32-0.94c0.4-0.82,0.93-0.95,0.93-0.95s-0.82-0.4-1.52,0.29c-0.45,0.44-1.11,0.57-2.24,0.55    c-1.43-0.02-2.01,1.68-2.01,1.68s-0.56,0.03-1.06,0.28c-0.43,0.22-0.92,0.7-0.92,0.7l0.18-0.55c0,0-1.06,0.53-1.09,2.16    c-0.05,2.75,2.94,2.98,3.91,3.05c1.46,0.11,4.22,0.19,6.35,0.48c2.87,0.4,2.95,1.72,2.57,2.34c-0.42,0.69-1.6,0.33-3.6-0.37    c-2-0.7-3.69-1.86-7.73-1.73c-6.38,0.2-13.13,4.75-15.08,3.59c0.1,0.74-0.08,2.27-1.75,3.62c-0.06-1.14-0.41-0.99-0.79-0.3    c-1.07,1.92-2.18,2.11-2.18,2.11s0.21-0.65-0.51-0.02C53.83,48.32,53,48.42,53,48.42s-1.02-0.73-1.25-1.87    c-0.03-0.15-0.21,0.36-0.21,0.36c-0.85-0.41-1.05-1.76-1.05-1.76s-0.4,0.26-1.34,0.11c0,0,0.52-0.57-0.07-2.07    c-1.17,0-5.79-0.81-6.37-3.19c-0.21-0.89-0.48-1.32-1.04-1.35c0.05,0.06,0.09,0.11,0.12,0.17c0.05,0.09,0.06,0.21,0.02,0.32    c-0.08,0.2-0.3,0.3-0.5,0.23c-0.13-0.05-0.2-0.17-0.27-0.31c-0.03-0.05-0.06-0.09-0.09-0.13c-0.45,0.36-0.31,1.1-0.31,1.1    c-0.52-0.44-1.59-1.16-2.22-0.71c0.12,0.05,0.23,0.11,0.3,0.18c0.09,0.08,0.14,0.19,0.14,0.31c0,0.23-0.19,0.41-0.42,0.41    c-0.15,0-0.26-0.09-0.39-0.21c-0.06-0.05-0.12-0.09-0.18-0.13c-0.56,0.9,1.24,1.87,1.24,1.87c-0.68-0.04-1.65,0.5-1.63,1.11    c0.1-0.05,0.21-0.09,0.31-0.1c0.1-0.01,0.22,0.02,0.31,0.09c0.16,0.14,0.17,0.38,0.04,0.54c-0.09,0.11-0.23,0.13-0.39,0.15    c-0.02,0-0.05,0.01-0.07,0.01c0.18,0.37,0.49,0.62,1.37,0.37c2.12-0.6,3.56-0.22,3.56-0.22s-0.06,0.71-1.03,0.52    c-0.04-0.01,0.38,0.55,1.24,0.55c1.14,0,1.74-0.45,1.76-0.46c0,0,0.05,0.27-0.27,0.43c-0.68,0.35-0.24,1.1-0.24,1.1    c0.37-0.84,1.06-0.51,1.06-0.51c-0.12,0.17-0.28,0.66,0.12,1.03c0,0,0.05-0.48,0.8-0.68c0.52-0.13,0.97,0.06,0.97,0.06    s-0.44,0.62,0.09,1.32c0,0,0.22-1.01,0.92-0.71c0.3,0.13,0.26,0.45,0.17,0.58c-0.13,0.2-0.45,0.26-0.45,0.26    c1.09,0.52,1.37-0.34,2.21,0.44c-1.08,0.49-2.44,0.59-3.69,0.53c-2.63-0.23-3.17-0.74-3.79-1.31c-0.84-0.81-1.51-0.89-1.91-0.77    c0.05,0.03,0.1,0.06,0.14,0.1c0.09,0.08,0.14,0.19,0.14,0.31c0,0.23-0.18,0.42-0.41,0.42c-0.15,0-0.26-0.09-0.39-0.21    c-0.03-0.02-0.07-0.05-0.1-0.07c-0.23,0.4,0.19,0.76,0.32,0.94c-0.15-0.03-0.35-0.06-0.49-0.09c-0.55-0.12-1.02,0.08-1.16,0.5    c0.15-0.02,0.31-0.02,0.44,0.03c0.11,0.03,0.21,0.11,0.26,0.22c0.1,0.21,0.01,0.45-0.2,0.55c-0.14,0.06-0.28,0.03-0.44-0.02    c-0.06-0.01-0.1-0.02-0.15-0.03c0.16,0.71,0.98,0.8,1.61,0.83c-0.31,0.18-0.62,0.45-0.55,0.87c0.09-0.08,0.2-0.15,0.3-0.18    c0.1-0.03,0.2-0.03,0.3,0.02c0.18,0.1,0.25,0.32,0.15,0.5c-0.07,0.11-0.19,0.16-0.33,0.21c-0.04,0.01-0.07,0.03-0.11,0.05    c0.51,0.54,1.75-0.17,2.1-0.37c0.99-0.56,1.85-0.47,2.34-0.22c0.93,0.46-0.32,0.85-0.32,0.85c0.3,0.25,0.8,0.13,1.1,0    c0.28-0.13,0.55-0.34,0.68-0.15c0.08,0.12,0.03,0.33-0.17,0.52c-0.15,0.14-0.4,0.19-0.4,0.19c1.16,0.45,2.23-0.62,2.23-0.62    s0.09,0.15-0.02,0.42c-0.17,0.45-0.6,0.62-0.6,0.62c1.25,0.38,1.9-1.11,1.9-1.11s0.6,0.46-0.14,1.11    c1.03,0.03,1.16-0.81,1.67-0.49c0.3,0.19,0.14,0.62-0.29,0.7c1.19,0.41,1.09-0.66,2.47-0.42c2.02,0.35,4.35,0.65,7.9-0.73    c5.46-2.09,6.02-6.9,12-7.57c0,0,0.5,1.05,4.59,2.15c4.34,1.17,11,0.27,10.7,2.33c-0.15,1.05-3.12-0.46-3.49,0.59    c0,0.02-0.01,0.04-0.01,0.05c0.11-0.02,0.23-0.03,0.33-0.01c0.1,0.02,0.19,0.07,0.25,0.16c0.1,0.17,0.05,0.39-0.12,0.5    c-0.11,0.06-0.24,0.05-0.39,0.02c-0.01,0-0.03,0-0.05,0c0.12,0.22,0.36,0.35,0.61,0.39c-0.36,0.19-0.57,0.33-0.59,0.8    c0,0.04,0,0.09,0,0.14c0.07-0.05,0.14-0.09,0.21-0.12c0.09-0.04,0.2-0.03,0.3,0.02c0.17,0.09,0.24,0.31,0.15,0.49    c-0.07,0.11-0.18,0.16-0.32,0.22c-0.01,0.01-0.03,0.01-0.04,0.02c0.22,0.21,0.54,0.3,0.82,0.21c0.32-0.1,0.46-0.22,0.52-0.28    c-0.1,0.17-0.29,0.56-0.19,0.87c0.03,0.13,0.09,0.21,0.16,0.28c0.02-0.12,0.07-0.24,0.13-0.33c0.06-0.09,0.15-0.15,0.25-0.16    c0.2-0.02,0.38,0.11,0.41,0.31c0.02,0.13-0.05,0.24-0.14,0.36c-0.01,0.02-0.02,0.03-0.03,0.05c0.76,0.03,1.43-0.99,1.57-1.87    c0.17-1.13,0.52-0.96,0.52-0.96s0.02,0.23,0.21,0.43c0.2,0.2,0.45,0.22,0.45,0.22c-0.03-0.77,0.53-1,0.78-0.79    c0.24,0.22,0.04,0.67,0.04,0.67s0.39,0.14,0.85-0.64c0.26-0.41,0.24-0.95,0.54-0.98c0.41-0.01,0.25,0.5,0.25,0.5    c0.96-0.52,0.36-2.05,0.73-2.22c0.3-0.08,0.18,0.48,0.18,0.48s0.6-0.32,0.43-0.98C92.73,45.67,93.21,46.47,93.21,46.47"/>
		<path class="st6" d="M82.51,26.14c-7.51-0.22-9.99-2.94-9.99-2.94s-1.27,1.93,1.85,3.19c0,0-0.58-0.16-1.32-0.22    c-0.88-0.07-1.26-0.08-1.26-0.08s-0.66-1-1.82-1.2c-0.32-0.06-0.63-0.07-0.91-0.03c0.02,0.02,0.04,0.03,0.05,0.05    c0.07,0.07,0.11,0.17,0.1,0.28c-0.02,0.2-0.19,0.34-0.39,0.33c-0.13-0.01-0.22-0.1-0.32-0.21c-0.05-0.04-0.1-0.08-0.14-0.11    c-0.01,0.01-0.03,0.02-0.04,0.04c-0.19,0.23-0.27,0.54-0.1,0.91c-1.07,0.15-1.42,0.48-1.51,0.92c0.17-0.05,0.37-0.08,0.52-0.04    c0.09,0.02,0.19,0.08,0.24,0.18c0.1,0.18,0.03,0.4-0.15,0.49c-0.11,0.06-0.24,0.04-0.38,0c-0.08-0.01-0.17-0.02-0.24-0.02    c0.1,0.56,0.78,0.97,1.86,0.52c0.26-0.11-0.66,0.32-0.3,1.27c0.02-0.07,0.04-0.13,0.08-0.18c0.05-0.09,0.14-0.15,0.24-0.17    c0.2-0.03,0.38,0.1,0.42,0.29c0.02,0.13-0.04,0.24-0.12,0.37c-0.05,0.09-0.09,0.18-0.1,0.27c0,0,0,0,0.01,0    c0.91,0.4,1.87-0.7,1.99-1.22c0,0,0.09,0.66,0.49,0.94c0.01,0,0.06-0.28,0.27-0.51c0.4-0.43,0.36,0.08,0.36,0.08    c0,0.79,0.5,0.92,0.5,0.92s-0.08-0.91,0.62-1.05c0.29,0.97,1.36-0.51,1.25-0.07c-0.24,0.98,0.19,1.28,0.19,1.28    s0.09-1.18,2.46-1.32c-0.02,0.12,0.06,0.78,0.67,1.09c0.17-2.28,3.4-2.3,3.93-2.39C83.06,27.55,82.51,26.14,82.51,26.14"/>
		<path class="st6" d="M60.48,16.78c0.26-1.23-0.7-1.26-0.7-1.26s0.41-0.27,0.57-0.79c0.28-0.91-0.22-2.13-0.22-2.13    s-0.32,0.91-1.33,0.47c0,0,0.5-0.59,0.11-1.67c-0.08,0.26-0.28,0.51-0.58,0.68c-0.51,0.3-1.1,0.24-1.32-0.14    c-0.19-0.33-0.03-0.78,0.35-1.09c-0.14-0.04-0.77-0.2-1.35-0.03c-0.62,0.18-1.55,0.8-1.55,0.8s-0.64-0.5-0.32-1.23    c0,0-0.96-0.1-1.29,1.01c-0.14,0.48-0.55,0.53-0.55,0.53s-0.07-0.77-0.77-0.99c-0.01-0.01-1.3,0.91-1.28,2.65    c-0.48,0.14-0.66,0.69-0.71,0.97c-0.6,3.53-1.5,1.86-1.5,1.92c0.19,1.78,1.41,1.53,1.41,1.53c-0.21,1.24-1.5,0.58-1.5,0.58    c0.47,1.8,1.56,1.05,1.56,1.05c-0.77,1.33-0.19,2.34,0.22,3.36c0.44,0.94,0.42,1.74,0.42,1.74s0.52-0.27,0.79-0.27    c0.39,0.01,0.27,0.43,0.28,0.96c0.02,0.75,0.33,0.98,0.33,0.98s0.04-0.14,0.17-0.33c0.2-0.31,0.31-0.27,0.31-0.27    s-0.1,0.95,0.51,1.41c0,0,0.87-1.26,1.35-1.17c0.32,0.06,0.51,0.83,0.51,0.83c2.51-1.59,2.85-5.06,3.32-3.83    c0.12,0.3,0.14,0.59,0.14,0.59s1.53-0.91,1.37-4.29c0,0,0.27,0.27,0.75,0.41c0.48,0.13,0.74-0.02,0.74-0.02    S60.04,18.82,60.48,16.78 M52,15.37l0-0.06l0-0.06l0.05,0.03l0.77,0.38c-0.07,0.04-0.12,0.09-0.15,0.15    c-0.14,0.23-0.06,0.52,0.16,0.65c0.22,0.14,0.52,0.06,0.65-0.16c0.06-0.09,0.07-0.2,0.06-0.3h0c0,0,0.52,0.24,0.43,0.88    c-0.07,0.5-0.43,1.07-0.43,1.07s-0.25-0.13-0.08-0.56c0.19-0.53,0.11-0.54,0.11-0.54s-0.55,0.08-0.95-0.16l-0.04-0.03    C51.97,16.27,51.99,15.47,52,15.37 M55.01,21.1c-0.61,0.46-0.55,1.21-0.71,1.71c-0.19,0.62-0.77,0.88-1.39,0.71    c-0.53-0.12-1.02-0.48-1.02-1.05c-0.01-0.65,1.12-1.44,0.49-2.3c-0.52-0.7-0.46-1.01-0.46-1.01s0.14,0.22,0.49,0.43    c0.13,0.07,1.19,0.66,1.46-0.17c0.07-0.21-0.08-0.35-0.22-0.46c-0.07-0.06-0.18-0.12-0.24-0.2c-0.16-0.2-0.01-0.42-0.01-0.42    s0.28,0.42,0.8,0.53c0.54,0.13,1.02-0.09,1.02-0.09s0.1,0.39-0.34,0.42c-0.24,0.01-0.59,0.01-0.65,0.3    c-0.2,0.97,1.23,0.85,1.66,0.81c0.34-0.03,0.5-0.07,0.5-0.07C56.07,20.64,55.55,20.69,55.01,21.1 M57.9,16.84l-0.02,0.05    c-0.04,0.09-0.42,0.79-1.16,0.83l-0.05,0c-0.47,0.01-0.9-0.34-0.9-0.34s-0.07-0.03-0.17,0.52c-0.07,0.45-0.35,0.44-0.35,0.44    s-0.03-0.66,0.16-1.13c0.24-0.6,0.81-0.54,0.81-0.54h0c-0.06,0.08-0.1,0.18-0.09,0.28c0,0.27,0.22,0.48,0.48,0.47    c0.27,0,0.48-0.22,0.47-0.48c0-0.08-0.02-0.15-0.06-0.21l0.86,0.05h0.06L57.9,16.84z"/>
		<path class="st6" d="M92.02,23.55c-0.52-0.25-1.36-0.14-2.37-0.04c-0.79,0.08-1.68,0.17-2.58,0.07c-6.07-0.61-6.56-2.84-6.32-2.69    c0,0,1.31,0.66,3.29,1.05c5.41,1.05,5.45-1.91,5.45-1.91s0.18,0.13,0.23,0.46c0.06,0.37-0.2,0.9-0.2,0.9s0.68-0.5,0.68-1.26    c0-1.12-0.74-1.52-0.74-1.52s0.15-0.02,0.42,0.22c0.27,0.23,0.43,0.8,0.43,0.8s0.28-0.94-0.75-1.81c-2.91-2.43-9.19-1.95-11.6-2.3    c-2.12-0.3-2.67-1.17-2.52-2.07c0.26-1.48,2.24-1.51,2.24-1.51c-0.1,1.61,1.9,2.66,3.8,2.24c1.06-0.24,1.7-0.6,2.46-1.2    c0.57-0.46,1.02-0.67,1.02-0.67c-0.98-0.19-1.6,0.2-2,0.36c-0.42,0.18-0.86,0.31-1.32,0.35c-1.18,0.1-1.3-0.69-1.3-0.69    s0.88,0.42,2.02,0.15c3.3-0.77,2.22-3.85,2.22-3.85s-0.29,1.16-1.32,1.6c-0.97,0.4-1.78-0.23-1.78-0.23s1.59,0.16,1.93-1.09    c0.19-0.71-0.48-1.07-0.48-1.07s0.15,1.58-3.66,1.35c-1.66-0.1-1.66,1.32-1.66,1.32s-0.27,0.01-0.95,0.2    c-0.62,0.18-1.04,0.48-1.04,0.48c0.17-0.46,0.84-0.68,0.84-0.68c-0.88,0-1.61,0.68-1.61,0.68c-0.01-0.17,0.13-0.42,0.13-0.42    c-0.03,0.05-0.98,0.84-1.2,2.53c-0.11,0.85,0.15,1.72,0.7,2.37c0.92,1.07,2.66,1.21,3.72,1.29c1.57,0.12,4.15,0.26,6.43,0.57    c3.09,0.43,3.27,1.46,2.87,2.12c-0.45,0.73-1.83,0.75-3.97,0c-2.15-0.75-6.45-2.31-9.55-2.3c-8.18,0.03-11.85,3.5-14.29,2.86    c0.07,3.14-2.17,4.39-2.17,4.39c-0.34-1.73-0.1,1.41-3.43,3.05c0,0-0.02-0.78-0.37-0.85c-0.45-0.09-1.09,1.12-1.09,1.12    c-0.71-0.47-0.93-1.21-0.93-1.21l-0.17,0.35c0,0-0.55-0.35-0.67-0.94c-0.12-0.6,0.06-1.05-0.21-1.06    c-0.31-0.02-0.96,0.43-0.96,0.43s0.11-1.03-0.36-2.11c-0.26-0.69-0.65-1.32-0.71-2.07c-2.63-0.49-5.84-1.55-5.91-2.56    c-0.07-0.95,0.1-1.92-0.96-2.23c0.01,0.03,0.03,0.06,0.04,0.09c0.03,0.1,0.03,0.22-0.03,0.32c-0.11,0.18-0.35,0.24-0.53,0.14    c-0.13-0.07-0.17-0.2-0.22-0.36c-0.01-0.02-0.02-0.05-0.03-0.07c-0.61,0.36-0.36,1.45-0.36,1.45c-0.48-0.49-1.49-1.38-2.09-0.81    c0.04,0.04,0.07,0.07,0.09,0.11c0.07,0.09,0.09,0.22,0.06,0.34c-0.06,0.22-0.28,0.36-0.5,0.31c-0.14-0.04-0.22-0.15-0.32-0.28    c-0.64,0.91,0.68,1.99,0.68,1.99c-0.19,0.1-1.25,0.31-1.25,1.08c0.13-0.09,0.29-0.16,0.44-0.17c0.11-0.01,0.22,0.02,0.31,0.09    c0.16,0.14,0.17,0.38,0.03,0.54c-0.09,0.11-0.23,0.13-0.39,0.15c-0.06,0.01-0.11,0.02-0.16,0.04c0.37,0.53,0.95,0.52,1.31,0.37    c1.69-0.72,2.12-0.32,2.86-0.15c0.52,0.12,0.99-0.01,1,0.29c0,0.26-0.24,0.44-1.02,0.35c0,0,0.19,0.5,1.05,0.59    c1.3,0.14,1.7-0.18,1.87,0.05c0.32,0.42-0.93,0.57-0.93,0.57c1.01,0.77,2.36,0.18,2.36,0.18c0.07,0.46-0.89,0.55-0.89,0.55    s0.39,0.42,1.14,0.24c0.29-0.07,0.53-0.2,0.53-0.2s-0.23,0.75,0.44,1.13c0,0,0.37-1.28,0.9-0.95c0.26,0.16,0.3,0.43,0.18,0.58    c-0.17,0.22-0.42,0.19-0.42,0.19c0.15,0.38,0.83,0.38,0.83,0.38s-0.82,0.51-3.12,0.48c-3.05-0.25-2.87-0.59-3.62-1.49    c-0.59-0.79-0.94-0.83-1.21-0.71c0.06,0.08,0.11,0.17,0.14,0.26c0.03,0.1,0.02,0.22-0.03,0.32c-0.11,0.19-0.34,0.25-0.53,0.14    c-0.1-0.06-0.15-0.16-0.2-0.28c-0.37,0.37-0.3,0.71-0.13,1.02c-0.15-0.02-1.59-0.23-1.85,0.43c0.18-0.02,0.37,0,0.51,0.06    c0.11,0.04,0.2,0.13,0.24,0.24c0.08,0.22-0.03,0.45-0.25,0.53c-0.15,0.05-0.28,0-0.44-0.07c-0.07-0.03-0.14-0.04-0.21-0.05    c-0.01,0.04-0.01,0.07-0.01,0.07c-0.02,0.99,1.42,1.01,2.14,1.04c-0.31,0.18-0.63,0.45-0.55,0.88c0.12-0.09,0.27-0.16,0.4-0.18    c0.11-0.02,0.23,0,0.33,0.08c0.18,0.14,0.22,0.4,0.08,0.58c-0.09,0.11-0.23,0.15-0.39,0.18c0.94,0.62,1.64-0.24,1.98-0.44    c0.99-0.56,2.52-0.5,2.91-0.08c0.29,0.31-0.35,0.67-0.35,0.67c0.7,0.09,1.22-0.34,1.22-0.34s-0.14,0.15-0.19,0.48    c-0.08,0.47,0.24,0.72,0.24,0.72c0.58-1.12,1.03-1.04,1.25-0.83c0.27,0.25-0.27,0.63-0.27,0.63c0.67,0.34,1.55-0.35,1.55-0.35    s-0.06,0.57,0.26,0.88c0.44-0.8,1.42-0.73,2.05-0.65c0,0-0.92,0.63-0.56,1.42c0.58-0.56,1.3-0.77,2.28-0.65    c2.03,0.25,5.88,1.4,12.49-4.73c4.47-4.15,7.45-3.61,7.45-3.61c3.97,3.22,11.59,3.28,13.54,3.42c0.94,0.07,0.96,0.65,0.54,1.16    c-0.26,0.31-0.6,0.39-0.62,0.39c0,0-1.88-0.78-2.57,0.27c0.13-0.02,0.25-0.03,0.36,0.01c0.09,0.02,0.18,0.08,0.23,0.17    c0.1,0.17,0.03,0.38-0.14,0.48c-0.11,0.06-0.23,0.04-0.38,0c-0.06-0.01-0.11-0.01-0.16-0.02c0.08,0.34,0.35,0.45,0.54,0.5    c0.08,0.02,0.07,0.03,0.05,0.06c-0.4,0.38-0.39,0.77-0.38,0.9c0.09-0.06,0.19-0.11,0.28-0.13c0.09-0.02,0.2-0.01,0.29,0.04    c0.16,0.11,0.2,0.33,0.1,0.49c-0.07,0.11-0.19,0.14-0.33,0.18c-0.04,0.01-0.07,0.02-0.1,0.03c0.2,0.31,0.56,0.5,1.1,0.3    c0.42-0.16,0.53-0.25,0.56-0.29c-0.05,0.09-0.19,0.4-0.03,0.64c0.02,0.03,0.04,0.06,0.06,0.09c0.04-0.15,0.11-0.31,0.22-0.41    c0.07-0.07,0.16-0.11,0.27-0.11c0.19,0.01,0.34,0.17,0.34,0.37c-0.01,0.13-0.09,0.22-0.19,0.32c-0.03,0.04-0.06,0.07-0.08,0.11    c0.19,0.03,0.39,0.02,0.48,0c0.58-0.12,1.04-0.62,1.17-1.85c0.05-0.42,0.14-0.65,0.24-0.76c0.2-0.22,0.64-0.39,0.64-0.39    s0.19,0.49-0.14,0.85c1.16,0.19,1.31-1.63,1.31-1.63s0.12,0.35,0.38,0.59c0.26,0.24,0.62,0.29,0.62,0.29    c-0.21-1.3,0.3-1.74,0.54-1.8c0.49-0.12,0.47,0.47,0.47,0.47s0.42-0.28,0.34-0.86c-0.05-0.33-0.22-0.65-0.22-0.65    s0.41-0.2,0.63,0.35c0,0,0.44-0.7,0.04-1.09c0,0,0.09-0.06,0.22-0.02c0.13,0.04,0.2,0.16,0.2,0.16S92.94,24,92.02,23.55"/>
		<path class="st4" d="M83.7,28.21c0.17-0.09,0.23-0.31,0.14-0.48c-0.05-0.09-0.14-0.15-0.23-0.17c-0.11-0.03-0.24-0.02-0.36,0    c-0.05,0.01-0.1,0.02-0.14,0.04c-0.58,0.2-0.66,0.67-0.7,0.93c0,0,0.27-0.35,0.77-0.33c0.05,0,0.1,0.01,0.16,0.02    C83.46,28.24,83.59,28.27,83.7,28.21"/>
		<path class="st4" d="M84.04,30.05c0.11-0.16,0.06-0.38-0.1-0.49c-0.09-0.06-0.19-0.07-0.28-0.04c-0.09,0.02-0.19,0.07-0.28,0.13    c-0.05,0.04-0.11,0.08-0.15,0.13c-0.43,0.44-0.28,0.9-0.2,1.14c0,0,0.09-0.46,0.58-0.66c0.04-0.01,0.07-0.02,0.1-0.03    C83.85,30.19,83.97,30.16,84.04,30.05"/>
		<path class="st4" d="M86.12,30.84c0.01-0.19-0.15-0.36-0.34-0.37c-0.11-0.01-0.2,0.04-0.27,0.11c-0.11,0.1-0.18,0.26-0.22,0.41    c0,0.01-0.01,0.03-0.01,0.04c-0.14,0.6,0.23,0.91,0.42,1.08c0,0-0.16-0.42,0.13-0.84c0.03-0.04,0.05-0.07,0.09-0.11    C86.03,31.05,86.11,30.97,86.12,30.84"/>
	</g>
</g>
</svg>